<svg width="500" height="500" viewBox="0 0 500 500" fill="none" xmlns="http://www.w3.org/2000/svg">
<path d="M144.165 212.28C138.939 212.28 134.972 210.6 132.265 207.24C129.652 203.787 127.879 197.393 126.945 188.06C126.385 183.207 125.825 176.907 125.265 169.16C118.732 171.12 112.152 173.173 105.525 175.32L100.765 188.48C99.832 191 99.1786 192.82 98.8053 193.94C98.432 194.967 97.732 196.553 96.7053 198.7C95.772 200.847 94.932 202.433 94.1853 203.46C93.532 204.393 92.552 205.607 91.2453 207.1C90.032 208.593 88.772 209.667 87.4653 210.32C84.1053 212 80.512 212.84 76.6853 212.84C72.8586 212.84 69.732 211.487 67.3053 208.78C64.972 205.98 63.8053 202.573 63.8053 198.56C63.8053 197.44 63.8986 196.273 64.0853 195.06C65.2986 186.1 74.492 177.933 91.6653 170.56C96.5186 158.147 104.592 137.24 115.885 107.84C118.872 106.16 122.652 105.32 127.225 105.32C128.252 105.32 129.232 105.32 130.165 105.32C131.099 105.32 132.219 105.32 133.525 105.32C134.925 105.32 136.652 105.6 138.705 106.16C138.799 110.547 140.945 137.753 145.145 187.78C145.519 191.98 146.032 194.733 146.685 196.04C147.339 197.253 148.459 197.86 150.045 197.86C152.659 197.86 156.112 196.087 160.405 192.54C164.792 188.993 168.712 184.56 172.165 179.24L176.085 188.76L172.725 193.24C162.925 205.933 153.405 212.28 144.165 212.28ZM121.905 129.68L109.725 163.7C116.259 161.46 121.112 159.827 124.285 158.8L121.905 129.68ZM86.7653 182.74C78.0853 187.127 73.7453 191.42 73.7453 195.62C73.7453 198.607 74.8653 200.1 77.1053 200.1C78.7853 200.1 80.1386 198.887 81.1653 196.46C82.3786 193.847 84.2453 189.273 86.7653 182.74Z" fill="#1E1E1E"/>
<path d="M200.287 212L205.607 165.52C205.607 162.907 204.953 160.76 203.647 159.08C202.433 157.307 200.24 156.42 197.067 156.42C193.893 156.42 191.28 157.96 189.227 161.04C187.173 164.027 185.867 167.2 185.307 170.56C182.04 193.8 180.22 207.613 179.847 212H161.087L168.787 146.2C172.707 145.173 175.693 144.66 177.747 144.66C183.627 144.66 186.847 146.62 187.407 150.54C191.98 146.62 196.973 144.66 202.387 144.66C213.213 144.66 220.12 147.88 223.107 154.32C227.68 147.787 234.213 144.52 242.707 144.52C248.96 144.52 253.907 146.153 257.547 149.42C261.187 152.593 263.007 156.607 263.007 161.46C263.007 162.86 262.727 165.333 262.167 168.88C260.02 182.88 258.947 191.093 258.947 193.52C258.947 197.907 260.393 200.1 263.287 200.1C265.713 200.1 268.28 198.513 270.987 195.34C273.787 192.073 276.027 187.08 277.707 180.36C280.88 183.72 282.793 186.38 283.447 188.34C278.593 204.58 270.007 212.7 257.687 212.7C251.9 212.7 247.607 210.927 244.807 207.38C242.007 203.833 240.607 200.1 240.607 196.18L243.967 165.24C243.967 162.72 243.313 160.62 242.007 158.94C240.7 157.26 238.6 156.42 235.707 156.42C232.907 156.42 230.433 157.493 228.287 159.64C226.14 161.787 224.647 164.54 223.807 167.9C221.007 191.607 219.187 206.307 218.347 212H200.287Z" fill="#1E1E1E"/>
<path d="M281.166 108.96C283.313 106.72 285.926 105.6 289.006 105.6C292.086 105.6 294.7 106.72 296.846 108.96C299.086 111.107 300.206 113.72 300.206 116.8C300.206 119.88 299.086 122.493 296.846 124.64C294.7 126.787 292.086 127.86 289.006 127.86C285.926 127.86 283.313 126.787 281.166 124.64C279.02 122.493 277.946 119.88 277.946 116.8C277.946 113.72 279.02 111.107 281.166 108.96ZM275.426 149.98C276.36 148.3 278.133 147.04 280.746 146.2C283.36 145.267 285.926 144.8 288.446 144.8C291.06 144.8 293.346 145.127 295.306 145.78C291.666 173.873 289.846 188.06 289.846 188.34C289.38 190.207 289.146 191.793 289.146 193.1C289.146 194.313 289.24 195.387 289.426 196.32C289.8 198.747 291.48 199.96 294.466 199.96C297.546 199.96 300.346 198 302.866 194.08C305.48 190.067 307.44 185.54 308.746 180.5C309.4 180.873 310.426 181.993 311.826 183.86C313.226 185.727 314.066 187.127 314.346 188.06C312.48 195.527 309.306 201.547 304.826 206.12C300.346 210.693 294.98 212.98 288.726 212.98C282.473 212.98 277.806 211.44 274.726 208.36C271.74 205.28 270.246 201.313 270.246 196.46C270.246 195.433 270.293 194.36 270.386 193.24L275.426 149.98Z" fill="#1E1E1E"/>
<path d="M337.789 144.66C342.922 144.66 347.635 145.5 351.929 147.18C354.822 145.407 357.855 144.52 361.029 144.52C364.202 144.52 366.722 144.94 368.589 145.78L363.549 185.26C370.455 179.94 375.682 175.087 379.229 170.7L383.289 179.24C377.969 184.84 370.875 190.813 362.009 197.16L358.229 226.42C357.202 235.193 354.309 241.913 349.549 246.58C344.882 251.34 338.815 253.72 331.349 253.72C327.055 253.72 322.855 252.32 318.749 249.52C314.455 246.533 312.309 241.727 312.309 235.1C312.309 226.98 316.182 219.56 323.929 212.84C317.302 212.373 311.609 209.62 306.849 204.58C302.089 199.54 299.709 192.96 299.709 184.84C299.709 172.613 303.302 162.86 310.489 155.58C317.675 148.3 326.775 144.66 337.789 144.66ZM339.889 155.58C333.915 155.58 329.155 157.867 325.609 162.44C322.155 166.92 320.102 173.64 319.449 182.6C319.355 183.44 319.309 184.233 319.309 184.98C319.309 189.553 320.382 193.193 322.529 195.9C324.769 198.607 327.615 199.96 331.069 199.96C336.949 199.96 341.382 195.853 344.369 187.64L347.869 157.26C344.975 156.14 342.315 155.58 339.889 155.58ZM323.089 233C323.089 235.52 323.789 237.48 325.189 238.88C326.682 240.373 328.362 241.12 330.229 241.12C335.455 241.12 338.489 237.807 339.329 231.18L341.709 210.18C329.295 217.553 323.089 225.16 323.089 233Z" fill="#1E1E1E"/>
<path d="M408.52 144.66C417.107 144.66 424.247 147.413 429.94 152.92C435.727 158.427 438.62 165.147 438.62 173.08C438.62 185.12 435.074 194.78 427.98 202.06C420.98 209.247 412.487 212.84 402.5 212.84C392.514 212.84 384.58 209.993 378.7 204.3C372.914 198.607 370.02 191.56 370.02 183.16C370.02 171.4 373.614 162.067 380.8 155.16C388.08 148.16 397.32 144.66 408.52 144.66ZM405.72 156C401.334 156 397.647 158.52 394.66 163.56C391.674 168.6 390.04 174.947 389.76 182.6C389.76 188.013 390.834 192.493 392.98 196.04C395.22 199.587 398.58 201.36 403.06 201.36C407.54 201.36 411.274 198.887 414.26 193.94C417.34 188.993 418.88 183.347 418.88 177C418.88 170.653 417.807 165.613 415.66 161.88C413.514 157.96 410.2 156 405.72 156Z" fill="#1E1E1E"/>
<path d="M183.588 323.72C181.441 326.053 177.895 328.153 172.948 330.02C168.001 331.793 164.035 332.68 161.048 332.68C158.155 332.68 156.008 332.587 154.608 332.4C152.275 346.213 146.301 357.74 136.688 366.98C127.168 376.22 116.061 380.84 103.368 380.84C90.7679 380.84 81.2479 376.92 74.8079 369.08C68.4612 361.24 65.2879 351.02 65.2879 338.42C65.2879 330.207 66.5479 322.227 69.0679 314.48C71.5879 306.64 75.0412 299.687 79.4279 293.62C83.9079 287.553 89.5079 282.7 96.2279 279.06C102.948 275.327 109.948 273.46 117.228 273.46C124.601 273.46 130.621 275.14 135.288 278.5C140.048 281.767 142.428 286.34 142.428 292.22C142.428 296.7 140.841 300.713 137.668 304.26C134.588 307.713 130.295 309.44 124.788 309.44C121.895 309.44 119.328 308.74 117.088 307.34C114.848 305.847 113.728 303.513 113.728 300.34C113.728 298.847 114.101 297.54 114.848 296.42C115.595 295.3 116.341 294.6 117.088 294.32L118.348 293.76C118.348 297.493 119.841 299.36 122.828 299.36C124.228 299.36 125.441 298.893 126.468 297.96C127.495 296.933 128.055 295.813 128.148 294.6C128.241 293.387 128.195 292.453 128.008 291.8C127.821 291.053 127.448 290.213 126.888 289.28C125.581 286.947 122.828 285.78 118.628 285.78C113.121 285.78 107.895 288.393 102.948 293.62C98.0012 298.847 94.0345 305.567 91.0479 313.78C88.1545 321.993 86.7079 330.393 86.7079 338.98C86.7079 346.167 87.8745 352.56 90.2079 358.16C91.5145 361.147 93.4279 363.527 95.9479 365.3C98.4679 366.98 101.501 367.82 105.048 367.82C110.928 367.82 116.155 365.347 120.728 360.4C125.395 355.453 128.801 349.48 130.948 342.48C133.188 335.48 134.308 328.387 134.308 321.2V319.52C134.028 318.493 133.888 317.513 133.888 316.58C133.888 312.1 135.475 308.693 138.648 306.36C140.701 304.867 143.268 304.12 146.348 304.12C147.188 304.12 148.541 304.26 150.408 304.54C152.275 304.82 153.581 305.24 154.328 305.8C152.368 305.893 150.828 306.547 149.708 307.76C148.681 308.973 148.168 310.607 148.168 312.66C148.168 314.713 149.101 316.627 150.968 318.4C153.581 320.92 157.641 322.18 163.148 322.18C168.748 322.18 174.535 319.893 180.508 315.32L183.588 323.72Z" fill="#1E1E1E"/>
<path d="M204.318 332.54C204.318 326.473 201.611 323.44 196.198 323.44C192.184 323.44 188.591 325.727 185.418 330.3C182.058 335.247 180.378 341.033 180.378 347.66C180.378 354.287 181.824 359.42 184.718 363.06C187.704 366.607 191.764 368.38 196.898 368.38C203.058 368.38 209.544 365.86 216.358 360.82C223.264 355.78 228.818 349.527 233.018 342.06C234.884 343.46 236.704 346.027 238.478 349.76C235.771 355.173 230.731 361.24 223.358 367.96C219.531 371.507 214.771 374.493 209.078 376.92C202.918 379.533 196.758 380.84 190.598 380.84C182.291 380.84 175.244 377.993 169.458 372.3C163.764 366.607 160.918 359.187 160.918 350.04C160.918 338.933 164.651 329.927 172.118 323.02C179.584 316.113 187.938 312.66 197.178 312.66C204.364 312.66 210.058 314.153 214.258 317.14C218.458 320.127 220.558 324.047 220.558 328.9C220.558 332.073 219.438 334.827 217.198 337.16C213.091 341.267 208.098 343.32 202.218 343.32C203.618 338.653 204.318 335.06 204.318 332.54Z" fill="#1E1E1E"/>
<path d="M285.763 314.06C281.936 344.3 280.023 360.4 280.023 362.36C280.023 366.093 281.376 367.96 284.083 367.96C286.509 367.96 289.123 366.327 291.923 363.06C294.816 359.7 297.103 354.707 298.783 348.08C301.863 351.44 303.729 354.053 304.383 355.92C302.236 364.973 298.829 371.367 294.163 375.1C289.496 378.833 284.689 380.7 279.743 380.7C271.623 380.7 266.163 377.573 263.363 371.32C258.509 377.573 252.023 380.7 243.903 380.7C237.183 380.7 232.003 379.02 228.363 375.66C224.723 372.3 222.903 367.913 222.903 362.5C222.903 361.193 223.136 358.907 223.603 355.64C225.749 338.28 227.383 324.467 228.503 314.2C231.396 313.173 234.056 312.66 236.483 312.66C238.909 312.66 240.729 312.753 241.943 312.94C243.156 313.127 244.323 313.827 245.443 315.04C246.563 316.253 247.123 317.98 247.123 320.22L242.503 355.92C242.316 357.04 242.223 358.067 242.223 359C242.223 364.507 244.743 367.26 249.783 367.26C254.449 367.26 258.323 364.973 261.403 360.4C261.403 359.373 261.496 357.74 261.683 355.5L266.303 318.26C266.956 316.673 268.356 315.367 270.503 314.34C272.649 313.22 275.309 312.66 278.483 312.66C281.749 312.66 284.176 313.127 285.763 314.06Z" fill="#1E1E1E"/>
<path d="M310.24 380.98C304.546 380.98 300.066 379.393 296.8 376.22C293.533 372.953 291.9 368.52 291.9 362.92C291.9 361.427 294.42 339.26 299.46 296.42C300.766 285.407 304.266 278.453 309.96 275.56C312.573 274.16 315.7 273.46 319.34 273.46C331.66 273.46 337.82 279.153 337.82 290.54C337.82 291.473 337.773 292.453 337.68 293.48C336.746 305.987 328.906 318.727 314.16 331.7C313.693 336.273 313.18 340.707 312.62 345C311.5 354.613 310.94 359.933 310.94 360.96C310.94 365.813 313.04 368.24 317.24 368.24C321.813 368.24 326.06 365.627 329.98 360.4C333.993 355.08 337.073 348.313 339.22 340.1C340.06 340.38 341.226 341.173 342.72 342.48C344.213 343.693 345.24 344.767 345.8 345.7C344.306 353.447 340.946 360.867 335.72 367.96C333.106 371.6 329.793 374.587 325.78 376.92C321.206 379.627 316.026 380.98 310.24 380.98ZM315.7 317.7C324.286 308.273 328.58 299.827 328.58 292.36C328.58 287.88 326.9 285.64 323.54 285.64C321.393 285.827 319.946 287.227 319.2 289.84C318.546 292.453 317.893 296.7 317.24 302.58C316.68 308.46 316.306 312.1 316.12 313.5L315.7 317.7Z" fill="#1E1E1E"/>
<path d="M363.113 282.56C363.113 283.12 361.853 293.153 359.333 312.66H379.913V323.44H357.933L357.513 326.94C368.433 336.087 373.893 346.073 373.893 356.9C373.893 365.393 371.699 371.507 367.313 375.24C363.019 378.973 357.839 380.84 351.773 380.84C345.706 380.84 341.273 379.253 338.473 376.08C335.673 372.813 334.273 368.893 334.273 364.32C334.273 363.293 334.366 362.173 334.553 360.96L338.893 323.72L338.333 323.44H326.993C326.899 322.507 326.853 321.013 326.853 318.96C326.853 316.813 327.273 314.713 328.113 312.66H340.153L344.633 274.58C346.593 273.833 349.206 273.46 352.473 273.46C359.566 273.46 363.113 276.493 363.113 282.56ZM364.513 356.76C364.513 350.32 361.713 343.973 356.113 337.72C354.433 351.627 353.593 359.653 353.593 361.8C353.593 366 354.946 368.1 357.653 368.1C359.613 368.1 361.246 367.213 362.553 365.44C363.859 363.573 364.513 360.68 364.513 356.76Z" fill="#1E1E1E"/>
<path d="M413.478 312.66C422.064 312.66 429.204 315.413 434.898 320.92C440.684 326.427 443.578 333.147 443.578 341.08C443.578 353.12 440.031 362.78 432.938 370.06C425.938 377.247 417.444 380.84 407.458 380.84C397.471 380.84 389.538 377.993 383.658 372.3C377.871 366.607 374.978 359.56 374.978 351.16C374.978 339.4 378.571 330.067 385.758 323.16C393.038 316.16 402.278 312.66 413.478 312.66ZM410.678 324C406.291 324 402.604 326.52 399.618 331.56C396.631 336.6 394.998 342.947 394.718 350.6C394.718 356.013 395.791 360.493 397.938 364.04C400.178 367.587 403.538 369.36 408.018 369.36C412.498 369.36 416.231 366.887 419.218 361.94C422.298 356.993 423.838 351.347 423.838 345C423.838 338.653 422.764 333.613 420.618 329.88C418.471 325.96 415.158 324 410.678 324Z" fill="#1E1E1E"/>
</svg>
