<svg width="1024" height="768" viewBox="0 0 1024 768" fill="none" xmlns="http://www.w3.org/2000/svg">
<g clip-path="url(#clip0_22_242)">
<rect width="1024" height="768" fill="#BD3634"/>
<path d="M406.165 346.28C400.939 346.28 396.972 344.6 394.265 341.24C391.652 337.787 389.879 331.393 388.945 322.06C388.385 317.207 387.825 310.907 387.265 303.16C380.732 305.12 374.152 307.173 367.525 309.32L362.765 322.48C361.832 325 361.179 326.82 360.805 327.94C360.432 328.967 359.732 330.553 358.705 332.7C357.772 334.847 356.932 336.433 356.185 337.46C355.532 338.393 354.552 339.607 353.245 341.1C352.032 342.593 350.772 343.667 349.465 344.32C346.105 346 342.512 346.84 338.685 346.84C334.859 346.84 331.732 345.487 329.305 342.78C326.972 339.98 325.805 336.573 325.805 332.56C325.805 331.44 325.899 330.273 326.085 329.06C327.299 320.1 336.492 311.933 353.665 304.56C358.519 292.147 366.592 271.24 377.885 241.84C380.872 240.16 384.652 239.32 389.225 239.32C390.252 239.32 391.232 239.32 392.165 239.32C393.099 239.32 394.219 239.32 395.525 239.32C396.925 239.32 398.652 239.6 400.705 240.16C400.799 244.547 402.945 271.753 407.145 321.78C407.519 325.98 408.032 328.733 408.685 330.04C409.339 331.253 410.459 331.86 412.045 331.86C414.659 331.86 418.112 330.087 422.405 326.54C426.792 322.993 430.712 318.56 434.165 313.24L438.085 322.76L434.725 327.24C424.925 339.933 415.405 346.28 406.165 346.28ZM383.905 263.68L371.725 297.7C378.259 295.46 383.112 293.827 386.285 292.8L383.905 263.68ZM348.765 316.74C340.085 321.127 335.745 325.42 335.745 329.62C335.745 332.607 336.865 334.1 339.105 334.1C340.785 334.1 342.139 332.887 343.165 330.46C344.379 327.847 346.245 323.273 348.765 316.74Z" fill="#E6DCB1"/>
<path d="M462.287 346L467.607 299.52C467.607 296.907 466.953 294.76 465.647 293.08C464.433 291.307 462.24 290.42 459.067 290.42C455.893 290.42 453.28 291.96 451.227 295.04C449.173 298.027 447.867 301.2 447.307 304.56C444.04 327.8 442.22 341.613 441.847 346H423.087L430.787 280.2C434.707 279.173 437.693 278.66 439.747 278.66C445.627 278.66 448.847 280.62 449.407 284.54C453.98 280.62 458.973 278.66 464.387 278.66C475.213 278.66 482.12 281.88 485.107 288.32C489.68 281.787 496.213 278.52 504.707 278.52C510.96 278.52 515.907 280.153 519.547 283.42C523.187 286.593 525.007 290.607 525.007 295.46C525.007 296.86 524.727 299.333 524.167 302.88C522.02 316.88 520.947 325.093 520.947 327.52C520.947 331.907 522.393 334.1 525.287 334.1C527.713 334.1 530.28 332.513 532.987 329.34C535.787 326.073 538.027 321.08 539.707 314.36C542.88 317.72 544.793 320.38 545.447 322.34C540.593 338.58 532.007 346.7 519.687 346.7C513.9 346.7 509.607 344.927 506.807 341.38C504.007 337.833 502.607 334.1 502.607 330.18L505.967 299.24C505.967 296.72 505.313 294.62 504.007 292.94C502.7 291.26 500.6 290.42 497.707 290.42C494.907 290.42 492.433 291.493 490.287 293.64C488.14 295.787 486.647 298.54 485.807 301.9C483.007 325.607 481.187 340.307 480.347 346H462.287Z" fill="#E6DCB1"/>
<path d="M543.166 242.96C545.313 240.72 547.926 239.6 551.006 239.6C554.086 239.6 556.7 240.72 558.846 242.96C561.086 245.107 562.206 247.72 562.206 250.8C562.206 253.88 561.086 256.493 558.846 258.64C556.7 260.787 554.086 261.86 551.006 261.86C547.926 261.86 545.313 260.787 543.166 258.64C541.02 256.493 539.946 253.88 539.946 250.8C539.946 247.72 541.02 245.107 543.166 242.96ZM537.426 283.98C538.36 282.3 540.133 281.04 542.746 280.2C545.36 279.267 547.926 278.8 550.446 278.8C553.06 278.8 555.346 279.127 557.306 279.78C553.666 307.873 551.846 322.06 551.846 322.34C551.38 324.207 551.146 325.793 551.146 327.1C551.146 328.313 551.24 329.387 551.426 330.32C551.8 332.747 553.48 333.96 556.466 333.96C559.546 333.96 562.346 332 564.866 328.08C567.48 324.067 569.44 319.54 570.746 314.5C571.4 314.873 572.426 315.993 573.826 317.86C575.226 319.727 576.066 321.127 576.346 322.06C574.48 329.527 571.306 335.547 566.826 340.12C562.346 344.693 556.98 346.98 550.726 346.98C544.473 346.98 539.806 345.44 536.726 342.36C533.74 339.28 532.246 335.313 532.246 330.46C532.246 329.433 532.293 328.36 532.386 327.24L537.426 283.98Z" fill="#E6DCB1"/>
<path d="M599.789 278.66C604.922 278.66 609.635 279.5 613.929 281.18C616.822 279.407 619.855 278.52 623.029 278.52C626.202 278.52 628.722 278.94 630.589 279.78L625.549 319.26C632.455 313.94 637.682 309.087 641.229 304.7L645.289 313.24C639.969 318.84 632.875 324.813 624.009 331.16L620.229 360.42C619.202 369.193 616.309 375.913 611.549 380.58C606.882 385.34 600.815 387.72 593.349 387.72C589.055 387.72 584.855 386.32 580.749 383.52C576.455 380.533 574.309 375.727 574.309 369.1C574.309 360.98 578.182 353.56 585.929 346.84C579.302 346.373 573.609 343.62 568.849 338.58C564.089 333.54 561.709 326.96 561.709 318.84C561.709 306.613 565.302 296.86 572.489 289.58C579.675 282.3 588.775 278.66 599.789 278.66ZM601.889 289.58C595.915 289.58 591.155 291.867 587.609 296.44C584.155 300.92 582.102 307.64 581.449 316.6C581.355 317.44 581.309 318.233 581.309 318.98C581.309 323.553 582.382 327.193 584.529 329.9C586.769 332.607 589.615 333.96 593.069 333.96C598.949 333.96 603.382 329.853 606.369 321.64L609.869 291.26C606.975 290.14 604.315 289.58 601.889 289.58ZM585.089 367C585.089 369.52 585.789 371.48 587.189 372.88C588.682 374.373 590.362 375.12 592.229 375.12C597.455 375.12 600.489 371.807 601.329 365.18L603.709 344.18C591.295 351.553 585.089 359.16 585.089 367Z" fill="#E6DCB1"/>
<path d="M670.52 278.66C679.107 278.66 686.247 281.413 691.94 286.92C697.727 292.427 700.62 299.147 700.62 307.08C700.62 319.12 697.074 328.78 689.98 336.06C682.98 343.247 674.487 346.84 664.5 346.84C654.514 346.84 646.58 343.993 640.7 338.3C634.914 332.607 632.02 325.56 632.02 317.16C632.02 305.4 635.614 296.067 642.8 289.16C650.08 282.16 659.32 278.66 670.52 278.66ZM667.72 290C663.334 290 659.647 292.52 656.66 297.56C653.674 302.6 652.04 308.947 651.76 316.6C651.76 322.013 652.834 326.493 654.98 330.04C657.22 333.587 660.58 335.36 665.06 335.36C669.54 335.36 673.274 332.887 676.26 327.94C679.34 322.993 680.88 317.347 680.88 311C680.88 304.653 679.807 299.613 677.66 295.88C675.514 291.96 672.2 290 667.72 290Z" fill="#E6DCB1"/>
<path d="M445.588 457.72C443.441 460.053 439.895 462.153 434.948 464.02C430.001 465.793 426.035 466.68 423.048 466.68C420.155 466.68 418.008 466.587 416.608 466.4C414.275 480.213 408.301 491.74 398.688 500.98C389.168 510.22 378.061 514.84 365.368 514.84C352.768 514.84 343.248 510.92 336.808 503.08C330.461 495.24 327.288 485.02 327.288 472.42C327.288 464.207 328.548 456.227 331.068 448.48C333.588 440.64 337.041 433.687 341.428 427.62C345.908 421.553 351.508 416.7 358.228 413.06C364.948 409.327 371.948 407.46 379.228 407.46C386.601 407.46 392.621 409.14 397.288 412.5C402.048 415.767 404.428 420.34 404.428 426.22C404.428 430.7 402.841 434.713 399.668 438.26C396.588 441.713 392.295 443.44 386.788 443.44C383.895 443.44 381.328 442.74 379.088 441.34C376.848 439.847 375.728 437.513 375.728 434.34C375.728 432.847 376.101 431.54 376.848 430.42C377.595 429.3 378.341 428.6 379.088 428.32L380.348 427.76C380.348 431.493 381.841 433.36 384.828 433.36C386.228 433.36 387.441 432.893 388.468 431.96C389.495 430.933 390.055 429.813 390.148 428.6C390.241 427.387 390.195 426.453 390.008 425.8C389.821 425.053 389.448 424.213 388.888 423.28C387.581 420.947 384.828 419.78 380.628 419.78C375.121 419.78 369.895 422.393 364.948 427.62C360.001 432.847 356.035 439.567 353.048 447.78C350.155 455.993 348.708 464.393 348.708 472.98C348.708 480.167 349.875 486.56 352.208 492.16C353.515 495.147 355.428 497.527 357.948 499.3C360.468 500.98 363.501 501.82 367.048 501.82C372.928 501.82 378.155 499.347 382.728 494.4C387.395 489.453 390.801 483.48 392.948 476.48C395.188 469.48 396.308 462.387 396.308 455.2V453.52C396.028 452.493 395.888 451.513 395.888 450.58C395.888 446.1 397.475 442.693 400.648 440.36C402.701 438.867 405.268 438.12 408.348 438.12C409.188 438.12 410.541 438.26 412.408 438.54C414.275 438.82 415.581 439.24 416.328 439.8C414.368 439.893 412.828 440.547 411.708 441.76C410.681 442.973 410.168 444.607 410.168 446.66C410.168 448.713 411.101 450.627 412.968 452.4C415.581 454.92 419.641 456.18 425.148 456.18C430.748 456.18 436.535 453.893 442.508 449.32L445.588 457.72Z" fill="#E6DCB1"/>
<path d="M466.318 466.54C466.318 460.473 463.611 457.44 458.198 457.44C454.184 457.44 450.591 459.727 447.418 464.3C444.058 469.247 442.378 475.033 442.378 481.66C442.378 488.287 443.824 493.42 446.718 497.06C449.704 500.607 453.764 502.38 458.898 502.38C465.058 502.38 471.544 499.86 478.358 494.82C485.264 489.78 490.818 483.527 495.018 476.06C496.884 477.46 498.704 480.027 500.478 483.76C497.771 489.173 492.731 495.24 485.358 501.96C481.531 505.507 476.771 508.493 471.078 510.92C464.918 513.533 458.758 514.84 452.598 514.84C444.291 514.84 437.244 511.993 431.458 506.3C425.764 500.607 422.918 493.187 422.918 484.04C422.918 472.933 426.651 463.927 434.118 457.02C441.584 450.113 449.938 446.66 459.178 446.66C466.364 446.66 472.058 448.153 476.258 451.14C480.458 454.127 482.558 458.047 482.558 462.9C482.558 466.073 481.438 468.827 479.198 471.16C475.091 475.267 470.098 477.32 464.218 477.32C465.618 472.653 466.318 469.06 466.318 466.54Z" fill="#E6DCB1"/>
<path d="M547.763 448.06C543.936 478.3 542.023 494.4 542.023 496.36C542.023 500.093 543.376 501.96 546.083 501.96C548.509 501.96 551.123 500.327 553.923 497.06C556.816 493.7 559.103 488.707 560.783 482.08C563.863 485.44 565.729 488.053 566.383 489.92C564.236 498.973 560.829 505.367 556.163 509.1C551.496 512.833 546.689 514.7 541.743 514.7C533.623 514.7 528.163 511.573 525.363 505.32C520.509 511.573 514.023 514.7 505.903 514.7C499.183 514.7 494.003 513.02 490.363 509.66C486.723 506.3 484.903 501.913 484.903 496.5C484.903 495.193 485.136 492.907 485.603 489.64C487.749 472.28 489.383 458.467 490.503 448.2C493.396 447.173 496.056 446.66 498.483 446.66C500.909 446.66 502.729 446.753 503.943 446.94C505.156 447.127 506.323 447.827 507.443 449.04C508.563 450.253 509.123 451.98 509.123 454.22L504.503 489.92C504.316 491.04 504.223 492.067 504.223 493C504.223 498.507 506.743 501.26 511.783 501.26C516.449 501.26 520.323 498.973 523.403 494.4C523.403 493.373 523.496 491.74 523.683 489.5L528.303 452.26C528.956 450.673 530.356 449.367 532.503 448.34C534.649 447.22 537.309 446.66 540.483 446.66C543.749 446.66 546.176 447.127 547.763 448.06Z" fill="#E6DCB1"/>
<path d="M572.24 514.98C566.546 514.98 562.066 513.393 558.8 510.22C555.533 506.953 553.9 502.52 553.9 496.92C553.9 495.427 556.42 473.26 561.46 430.42C562.766 419.407 566.266 412.453 571.96 409.56C574.573 408.16 577.7 407.46 581.34 407.46C593.66 407.46 599.82 413.153 599.82 424.54C599.82 425.473 599.773 426.453 599.68 427.48C598.746 439.987 590.906 452.727 576.16 465.7C575.693 470.273 575.18 474.707 574.62 479C573.5 488.613 572.94 493.933 572.94 494.96C572.94 499.813 575.04 502.24 579.24 502.24C583.813 502.24 588.06 499.627 591.98 494.4C595.993 489.08 599.073 482.313 601.22 474.1C602.06 474.38 603.226 475.173 604.72 476.48C606.213 477.693 607.24 478.767 607.8 479.7C606.306 487.447 602.946 494.867 597.72 501.96C595.106 505.6 591.793 508.587 587.78 510.92C583.206 513.627 578.026 514.98 572.24 514.98ZM577.7 451.7C586.286 442.273 590.58 433.827 590.58 426.36C590.58 421.88 588.9 419.64 585.54 419.64C583.393 419.827 581.946 421.227 581.2 423.84C580.546 426.453 579.893 430.7 579.24 436.58C578.68 442.46 578.306 446.1 578.12 447.5L577.7 451.7Z" fill="#E6DCB1"/>
<path d="M625.113 416.56C625.113 417.12 623.853 427.153 621.333 446.66H641.913V457.44H619.933L619.513 460.94C630.433 470.087 635.893 480.073 635.893 490.9C635.893 499.393 633.699 505.507 629.313 509.24C625.019 512.973 619.839 514.84 613.773 514.84C607.706 514.84 603.273 513.253 600.473 510.08C597.673 506.813 596.273 502.893 596.273 498.32C596.273 497.293 596.366 496.173 596.553 494.96L600.893 457.72L600.333 457.44H588.993C588.899 456.507 588.853 455.013 588.853 452.96C588.853 450.813 589.273 448.713 590.113 446.66H602.153L606.633 408.58C608.593 407.833 611.206 407.46 614.473 407.46C621.566 407.46 625.113 410.493 625.113 416.56ZM626.513 490.76C626.513 484.32 623.713 477.973 618.113 471.72C616.433 485.627 615.593 493.653 615.593 495.8C615.593 500 616.946 502.1 619.653 502.1C621.613 502.1 623.246 501.213 624.553 499.44C625.859 497.573 626.513 494.68 626.513 490.76Z" fill="#E6DCB1"/>
<path d="M675.478 446.66C684.064 446.66 691.204 449.413 696.898 454.92C702.684 460.427 705.578 467.147 705.578 475.08C705.578 487.12 702.031 496.78 694.938 504.06C687.938 511.247 679.444 514.84 669.458 514.84C659.471 514.84 651.538 511.993 645.658 506.3C639.871 500.607 636.978 493.56 636.978 485.16C636.978 473.4 640.571 464.067 647.758 457.16C655.038 450.16 664.278 446.66 675.478 446.66ZM672.678 458C668.291 458 664.604 460.52 661.618 465.56C658.631 470.6 656.998 476.947 656.718 484.6C656.718 490.013 657.791 494.493 659.938 498.04C662.178 501.587 665.538 503.36 670.018 503.36C674.498 503.36 678.231 500.887 681.218 495.94C684.298 490.993 685.838 485.347 685.838 479C685.838 472.653 684.764 467.613 682.618 463.88C680.471 459.96 677.158 458 672.678 458Z" fill="#E6DCB1"/>
<path d="M636.423 755.555C636.423 755.555 652.603 718.952 648.728 691.199C643.809 655.972 600.756 653.47 590.229 623.305C579.702 593.139 585.48 584.974 563.157 564.546C544.062 547.071 500.215 551.112 485.953 571.087C473.851 588.036 442.87 572.871 422.403 597.337C408.305 614.191 423.218 633.839 409.89 654.358C400.661 668.566 387.582 672.351 382.794 694.29C376.993 720.868 394.51 755.402 394.51 755.402L636.423 755.555Z" fill="#CEAC5C"/>
<path d="M546.864 571.984C547.921 571.984 548.777 571.127 548.777 570.071C548.777 569.014 547.921 568.158 546.864 568.158C545.807 568.158 544.951 569.014 544.951 570.071C544.951 571.127 545.807 571.984 546.864 571.984Z" fill="#E6D8D6"/>
<path d="M538.444 575.975C539.501 575.975 540.357 575.118 540.357 574.062C540.357 573.005 539.501 572.148 538.444 572.148C537.387 572.148 536.531 573.005 536.531 574.062C536.531 575.118 537.387 575.975 538.444 575.975Z" fill="#E6D8D6"/>
<path d="M531.138 579.901C532.195 579.901 533.051 579.045 533.051 577.988C533.051 576.932 532.195 576.075 531.138 576.075C530.082 576.075 529.225 576.932 529.225 577.988C529.225 579.045 530.082 579.901 531.138 579.901Z" fill="#E6D8D6"/>
<path d="M522.337 583.151C523.393 583.151 524.25 582.295 524.25 581.238C524.25 580.182 523.393 579.325 522.337 579.325C521.28 579.325 520.423 580.182 520.423 581.238C520.423 582.295 521.28 583.151 522.337 583.151Z" fill="#E6D8D6"/>
<path d="M513.592 587.218C514.648 587.218 515.505 586.362 515.505 585.305C515.505 584.249 514.648 583.392 513.592 583.392C512.535 583.392 511.679 584.249 511.679 585.305C511.679 586.362 512.535 587.218 513.592 587.218Z" fill="#E6D8D6"/>
<path d="M504.755 590.289C505.812 590.289 506.668 589.432 506.668 588.376C506.668 587.319 505.812 586.462 504.755 586.462C503.699 586.462 502.842 587.319 502.842 588.376C502.842 589.432 503.699 590.289 504.755 590.289Z" fill="#E6D8D6"/>
<path d="M496.266 593.751C497.323 593.751 498.179 592.894 498.179 591.837C498.179 590.781 497.323 589.924 496.266 589.924C495.21 589.924 494.353 590.781 494.353 591.837C494.353 592.894 495.21 593.751 496.266 593.751Z" fill="#E6D8D6"/>
<path d="M487.099 596.481C488.155 596.481 489.012 595.625 489.012 594.568C489.012 593.512 488.155 592.655 487.099 592.655C486.042 592.655 485.186 593.512 485.186 594.568C485.186 595.625 486.042 596.481 487.099 596.481Z" fill="#E6D8D6"/>
<path d="M479.479 598.394C480.535 598.394 481.392 597.538 481.392 596.481C481.392 595.425 480.535 594.568 479.479 594.568C478.422 594.568 477.566 595.425 477.566 596.481C477.566 597.538 478.422 598.394 479.479 598.394Z" fill="#E6D8D6"/>
<path d="M427.827 602.643C428.884 602.643 429.74 601.787 429.74 600.73C429.74 599.673 428.884 598.817 427.827 598.817C426.77 598.817 425.914 599.673 425.914 600.73C425.914 601.787 426.77 602.643 427.827 602.643Z" fill="#E6D8D6"/>
<path d="M436.471 603.161C437.528 603.161 438.385 602.304 438.385 601.248C438.385 600.191 437.528 599.335 436.471 599.335C435.415 599.335 434.558 600.191 434.558 601.248C434.558 602.304 435.415 603.161 436.471 603.161Z" fill="#E6D8D6"/>
<path d="M445.836 603.161C446.893 603.161 447.749 602.304 447.749 601.248C447.749 600.191 446.893 599.335 445.836 599.335C444.78 599.335 443.923 600.191 443.923 601.248C443.923 602.304 444.78 603.161 445.836 603.161Z" fill="#E6D8D6"/>
<path d="M454.32 602.643C455.376 602.643 456.233 601.787 456.233 600.73C456.233 599.673 455.376 598.817 454.32 598.817C453.263 598.817 452.406 599.673 452.406 600.73C452.406 601.787 453.263 602.643 454.32 602.643Z" fill="#E6D8D6"/>
<path d="M463.029 601.588C464.086 601.588 464.942 600.731 464.942 599.675C464.942 598.618 464.086 597.762 463.029 597.762C461.973 597.762 461.116 598.618 461.116 599.675C461.116 600.731 461.973 601.588 463.029 601.588Z" fill="#E6D8D6"/>
<path d="M471.266 600.307C472.322 600.307 473.179 599.451 473.179 598.394C473.179 597.338 472.322 596.481 471.266 596.481C470.209 596.481 469.353 597.338 469.353 598.394C469.353 599.451 470.209 600.307 471.266 600.307Z" fill="#E6D8D6"/>
<path d="M553.87 567.325C554.927 567.325 555.783 566.469 555.783 565.412C555.783 564.355 554.927 563.499 553.87 563.499C552.813 563.499 551.957 564.355 551.957 565.412C551.957 566.469 552.813 567.325 553.87 567.325Z" fill="#E6D8D6"/>
<path d="M499.917 570.535C501.173 570.535 502.192 569.517 502.192 568.26C502.192 567.004 501.173 565.986 499.917 565.986C498.661 565.986 497.642 567.004 497.642 568.26C497.642 569.517 498.661 570.535 499.917 570.535Z" fill="#E6D8D6"/>
<path d="M533.146 588.755C534.402 588.755 535.421 587.736 535.421 586.48C535.421 585.224 534.402 584.205 533.146 584.205C531.89 584.205 530.871 585.224 530.871 586.48C530.871 587.736 531.89 588.755 533.146 588.755Z" fill="#E6D8D6"/>
<path d="M575.782 598.525C577.039 598.525 578.057 597.506 578.057 596.25C578.057 594.994 577.039 593.975 575.782 593.975C574.526 593.975 573.508 594.994 573.508 596.25C573.508 597.506 574.526 598.525 575.782 598.525Z" fill="#E6D8D6"/>
<path d="M515.304 580.556C516.56 580.556 517.579 579.538 517.579 578.281C517.579 577.025 516.56 576.007 515.304 576.007C514.048 576.007 513.03 577.025 513.03 578.281C513.03 579.538 514.048 580.556 515.304 580.556Z" fill="#E6D8D6"/>
<path d="M507.583 575.932C508.839 575.932 509.857 574.914 509.857 573.658C509.857 572.401 508.839 571.383 507.583 571.383C506.327 571.383 505.308 572.401 505.308 573.658C505.308 574.914 506.327 575.932 507.583 575.932Z" fill="#E6D8D6"/>
<path d="M554.612 595.564C555.868 595.564 556.887 594.546 556.887 593.289C556.887 592.033 555.868 591.015 554.612 591.015C553.356 591.015 552.337 592.033 552.337 593.289C552.337 594.546 553.356 595.564 554.612 595.564Z" fill="#E6D8D6"/>
<path d="M543.879 592.72C545.135 592.72 546.154 591.702 546.154 590.445C546.154 589.189 545.135 588.171 543.879 588.171C542.623 588.171 541.604 589.189 541.604 590.445C541.604 591.702 542.623 592.72 543.879 592.72Z" fill="#E6D8D6"/>
<path d="M565.567 597.839C566.823 597.839 567.841 596.82 567.841 595.564C567.841 594.308 566.823 593.289 565.567 593.289C564.31 593.289 563.292 594.308 563.292 595.564C563.292 596.82 564.31 597.839 565.567 597.839Z" fill="#E6D8D6"/>
<path d="M526.119 601.523V640.473H556.57V601.523H526.119ZM553.172 637.003H529.52V604.993H553.172V637.003Z" fill="#E6D6B1"/>
<path d="M486.834 623.732V662.679H517.286V623.732H486.834ZM513.884 659.212H490.236V627.202H513.884V659.212Z" fill="#E6D6B1"/>
<path d="M515.97 742.815C478.245 742.815 444.017 744.317 418.896 746.758V738.166H562.87V678.484H400.002V738.166H412.34V747.439C389.994 749.922 376.387 753.213 376.387 756.823C376.387 764.559 438.88 770.83 515.97 770.83C593.06 770.83 655.554 764.559 655.554 756.823C655.554 749.087 593.06 742.815 515.97 742.815Z" fill="#E6D6B1"/>
<path d="M557.301 563.499C557.301 563.499 492.473 607.313 423.582 600.48" stroke="#E6D6B1" stroke-width="2" stroke-miterlimit="10" stroke-linecap="round" stroke-linejoin="round"/>
<path d="M579.717 596.442C579.717 596.442 541.954 599.796 495.619 565.685" stroke="#E6D6B1" stroke-width="2" stroke-miterlimit="10" stroke-linecap="round" stroke-linejoin="round"/>
<path d="M500.581 735.197H491.333V754.961H500.581V735.197Z" fill="#AB4537"/>
<path d="M527.265 705.572C528.604 704.849 528.324 703.096 528.324 703.096C528.324 703.096 531.519 705.114 534.882 704.357C538.246 703.6 538.414 701.667 538.414 701.667C530.195 693.69 522.432 682.852 517.594 673.64C519.044 672.485 518.993 670.149 518.993 670.149C518.993 670.149 520.555 672.84 523.185 673.201C525.815 673.562 527.541 671.471 527.541 671.471C522.481 667.237 515.497 656.716 511.565 648.785C512.304 647.723 511.541 646.072 511.541 646.072C511.541 646.072 513.114 648.391 515.159 648.391C517.204 648.391 517.911 646.61 517.911 646.61C513.151 641.74 508.871 634.29 505.985 628.185C505.887 627.767 505.72 627.461 505.72 627.461C505.72 627.461 507.132 628.751 508.422 628.63C509.713 628.509 510.277 627.461 510.277 627.461C510.277 627.461 506.446 624.719 503.663 620C501.754 616.762 500.281 613.79 499.545 612.244C500.131 612.883 501.254 613.74 502.738 613.165C504.249 612.58 504.148 610.865 504.148 610.865C498.284 606.665 494.644 600.672 492.29 593.642C492.29 593.642 490.271 599.859 487.729 604.082C484.507 609.434 481.095 612.3 481.095 612.3C481.095 612.3 481.924 613.2 483.085 613.165C484.246 613.129 485.075 611.655 485.075 611.655C485.075 611.655 483.832 614.252 485.324 614.768C485.599 614.864 485.876 614.848 486.146 614.76C485.165 616.689 483.916 618.985 482.512 621.195C480.466 624.417 475.894 628.802 475.894 628.802C475.894 628.802 476.555 629.849 478.788 629.231C481.106 628.588 482.209 626.291 482.209 626.291C482.209 626.291 481.526 628.108 481.93 629.041C479.032 635.926 474.586 643.804 469.616 648.932C469.616 648.932 471.434 650.819 474.658 649.928C476.135 649.521 477.265 648.603 478.056 647.729C475.287 655.417 469.892 664.731 463.844 670.932C463.844 670.932 464.155 672.834 467.109 673.201C469.343 673.479 470.583 671.903 470.583 671.903C470.583 671.903 470.419 674.123 472.063 674.288C472.069 674.288 472.075 674.288 472.082 674.288C468.196 683.187 460.83 693.975 453.575 701.919C453.575 701.919 455.593 703.937 460.217 703.769C464.842 703.6 466.999 700.489 466.999 700.489C466.999 700.489 466.81 701.065 466.781 701.821C461.889 713.253 454.567 724.37 445.166 735.216C445.166 735.216 446.428 737.065 450.632 735.972C454.836 734.879 455.761 733.786 455.761 733.786C455.761 733.786 454.415 737.318 456.601 738.074C458.788 738.831 462.235 736.729 462.235 736.729C462.235 736.729 461.399 739.42 464.339 739.924C467.28 740.429 469.13 738.242 469.13 738.242C469.13 738.242 470.559 740.429 473.334 740.513C476.109 740.597 476.781 739.083 476.781 739.083C476.781 739.083 476.445 742.699 480.901 743.287C485.358 743.876 486.787 739.84 486.787 739.84C486.787 739.84 486.955 741.858 488.721 741.942C490.487 742.026 491.159 740.513 491.159 740.513C491.159 740.513 492.252 743.152 494.943 743.346C497.634 743.54 498.811 740.597 498.811 740.597C498.811 740.597 500.745 743.876 504.444 743.96C508.144 744.044 510.498 739.756 510.498 739.756C510.498 739.756 511.928 742.026 514.534 741.858C517.141 741.69 518.486 738.999 518.486 738.999C518.486 738.999 521.177 742.699 525.633 742.615C530.09 742.531 531.099 737.661 531.099 737.661C531.099 737.661 531.603 740.176 534.126 740.008C536.648 739.84 536.648 736.981 536.648 736.981C536.648 736.981 538.162 739.251 540.011 739.504C541.861 739.756 542.534 737.149 542.534 737.149C542.534 737.149 543.122 738.999 545.477 738.999C547.831 738.999 548.84 736.897 548.84 736.897C539.376 726.282 532.423 715.114 527.265 705.572Z" fill="#4BB4AD"/>
<path d="M481.095 612.3C481.095 612.3 481.924 613.201 483.085 613.165C484.246 613.129 485.075 611.655 485.075 611.655C485.075 611.655 483.832 614.252 485.324 614.768C486.817 615.285 488.392 612.549 488.392 612.549C488.392 612.549 488.061 615.534 490.3 615.866C492.539 616.197 493.036 612.549 493.036 612.549C493.036 612.549 493.7 615.949 496.768 615.451C499.836 614.954 499.09 611.655 499.09 611.655C499.09 611.655 500.506 614.03 502.738 613.165C504.249 612.58 504.148 610.865 504.148 610.865" stroke="#258A86" stroke-width="2" stroke-miterlimit="10" stroke-linecap="round" stroke-linejoin="round"/>
<path d="M475.894 628.802C475.894 628.802 476.555 629.85 478.788 629.231C481.106 628.588 482.209 626.292 482.209 626.292C482.209 626.292 481.092 629.247 482.541 629.557C485.006 630.086 487.29 626.292 487.29 626.292C487.29 626.292 486.564 630.002 489.105 630.203C491.646 630.405 492.622 627.703 492.622 627.703C492.622 627.703 493.702 631.494 496.283 631.252C498.864 631.01 499.187 628.389 499.187 628.389C499.187 628.389 501.167 630.929 504.15 630.486C507.132 630.042 505.72 627.461 505.72 627.461C505.72 627.461 507.132 628.752 508.422 628.631C509.713 628.51 510.277 627.461 510.277 627.461" stroke="#258A86" stroke-width="2" stroke-miterlimit="10" stroke-linecap="round" stroke-linejoin="round"/>
<path d="M469.616 648.933C469.616 648.933 471.434 650.819 474.658 649.928C477.883 649.038 479.456 645.72 479.456 645.72C479.456 645.72 478.197 649.678 480.163 650.167C482.129 650.657 483.545 647.905 483.545 647.905C483.545 647.905 482.759 651.21 485.275 651.54C487.792 651.871 488.735 648.933 488.735 648.933C488.735 648.933 488.657 652.761 491.645 652.357C494.633 651.952 494.083 648.472 494.083 648.472C494.083 648.472 494.555 651.857 497.465 651.54C500.374 651.223 500.61 648.391 500.61 648.391C500.61 648.391 501.947 651.857 504.936 651.54C507.924 651.223 506.823 647.905 506.823 647.905C506.823 647.905 508.238 650.198 510.519 649.497C512.8 648.795 511.541 646.072 511.541 646.072C511.541 646.072 513.114 648.391 515.159 648.391C517.204 648.391 517.911 646.61 517.911 646.61" stroke="#258A86" stroke-width="2" stroke-miterlimit="10" stroke-linecap="round" stroke-linejoin="round"/>
<path d="M463.844 670.932C463.844 670.932 464.155 672.834 467.109 673.201C469.343 673.479 470.583 671.903 470.583 671.903C470.583 671.903 470.419 674.123 472.063 674.288C473.707 674.452 475.433 672.429 475.433 672.429C475.433 672.429 474.693 675.969 477.652 676.101C480.611 676.233 481.432 673.201 481.432 673.201C481.432 673.201 482.09 676.293 484.802 676.101C487.514 675.909 488.829 673.201 488.829 673.201C488.829 673.201 488.419 677.022 491.953 677.194C495.487 677.366 495.98 672.429 495.98 672.429C495.98 672.429 496.391 675.052 499.103 674.954C501.815 674.857 502.637 671.903 502.637 671.903C502.637 671.903 503.987 675.667 507.504 675.586C511.021 675.505 511.76 671.474 511.76 671.474C511.76 671.474 513.322 674.659 516.199 674.232C519.075 673.805 518.993 670.149 518.993 670.149C518.993 670.149 520.555 672.84 523.185 673.201C525.815 673.562 527.541 671.471 527.541 671.471" stroke="#258A86" stroke-width="2" stroke-miterlimit="10" stroke-linecap="round" stroke-linejoin="round"/>
<path d="M453.574 701.919C453.574 701.919 455.592 703.937 460.217 703.769C464.842 703.601 466.999 700.49 466.999 700.49C466.999 700.49 465.645 704.61 469.616 705.282C473.586 705.955 474.595 701.835 474.595 701.835C474.595 701.835 472.913 706.207 475.94 706.964C478.967 707.721 480.229 705.366 480.229 705.366C480.229 705.366 480.145 707.721 482.078 707.973C484.012 708.225 484.853 705.871 484.853 705.871C484.853 705.871 484.601 707.59 486.283 707.992C487.964 708.393 488.216 706.628 488.216 706.628C488.216 706.628 488.889 710.075 492.337 709.57C495.784 709.066 495.692 705.955 495.692 705.955C495.692 705.955 495.952 710.008 499.063 709.621C502.174 709.234 501.838 705.955 501.838 705.955C501.838 705.955 503.267 709.234 506.799 708.309C510.33 707.384 509.237 703.264 509.237 703.264C509.237 703.264 510.666 707.721 514.702 707.384C518.738 707.048 517.911 703.685 517.911 703.685C517.911 703.685 518.907 705.366 520.672 705.114C522.438 704.862 522.438 702.507 522.438 702.507C522.438 702.507 523.531 706.039 526.138 705.871C528.744 705.703 528.324 703.096 528.324 703.096C528.324 703.096 531.519 705.114 534.882 704.357C538.246 703.601 538.414 701.667 538.414 701.667" stroke="#258A86" stroke-width="2" stroke-miterlimit="10" stroke-linecap="round" stroke-linejoin="round"/>
<path d="M445.166 735.216C445.166 735.216 446.428 737.065 450.632 735.972C454.836 734.879 455.761 733.786 455.761 733.786C455.761 733.786 454.415 737.318 456.601 738.074C458.788 738.831 462.235 736.729 462.235 736.729C462.235 736.729 461.399 739.42 464.339 739.924C467.28 740.429 469.13 738.243 469.13 738.243C469.13 738.243 470.559 740.429 473.334 740.513C476.109 740.597 476.781 739.083 476.781 739.083C476.781 739.083 476.445 742.699 480.901 743.287C485.358 743.876 486.787 739.84 486.787 739.84C486.787 739.84 486.955 741.858 488.721 741.942C490.487 742.026 491.159 740.513 491.159 740.513C491.159 740.513 492.252 743.152 494.943 743.346C497.634 743.54 498.811 740.597 498.811 740.597C498.811 740.597 500.745 743.876 504.444 743.96C508.144 744.044 510.498 739.756 510.498 739.756C510.498 739.756 511.928 742.026 514.534 741.858C517.141 741.69 518.486 738.999 518.486 738.999C518.486 738.999 521.177 742.699 525.633 742.615C530.09 742.531 531.099 737.661 531.099 737.661C531.099 737.661 531.603 740.176 534.126 740.008C536.648 739.84 536.648 736.981 536.648 736.981C536.648 736.981 538.162 739.251 540.011 739.504C541.861 739.756 542.534 737.149 542.534 737.149C542.534 737.149 543.122 738.999 545.477 738.999C547.831 738.999 548.84 736.897 548.84 736.897" stroke="#258A86" stroke-width="2" stroke-miterlimit="10" stroke-linecap="round" stroke-linejoin="round"/>
<path d="M482.586 650.09C482.586 650.09 482.157 648.361 483.327 648.342C484.498 648.322 484.051 650.107 484.051 650.107L482.586 650.09Z" fill="#F1AF78"/>
<path d="M505.841 673.981C505.841 673.981 505.32 671.878 506.743 671.854C508.167 671.83 507.624 674.001 507.624 674.001L505.841 673.981Z" fill="#F1AF78"/>
<path d="M473.737 708.593C473.737 708.593 473.05 705.825 474.924 705.794C476.798 705.763 476.083 708.62 476.083 708.62L473.737 708.593Z" fill="#F1AF78"/>
<path d="M483.324 657.909C485.505 657.909 487.273 656.141 487.273 653.96C487.273 651.779 485.505 650.01 483.324 650.01C481.143 650.01 479.375 651.779 479.375 653.96C479.375 656.141 481.143 657.909 483.324 657.909Z" fill="#FE434C"/>
<path d="M506.74 683.489C509.392 683.489 511.543 681.339 511.543 678.686C511.543 676.034 509.392 673.884 506.74 673.884C504.087 673.884 501.937 676.034 501.937 678.686C501.937 681.339 504.087 683.489 506.74 683.489Z" fill="#FE434C"/>
<path d="M474.919 721.107C478.41 721.107 481.24 718.277 481.24 714.786C481.24 711.295 478.41 708.465 474.919 708.465C471.428 708.465 468.598 711.295 468.598 714.786C468.598 718.277 471.428 721.107 474.919 721.107Z" fill="#FE434C"/>
<path d="M488.767 603.07C488.767 603.07 492.202 606.902 499.535 607.403" stroke="#FBFBFD" stroke-width="2" stroke-miterlimit="10" stroke-linecap="round" stroke-linejoin="round"/>
<path d="M482.115 632.745C482.115 632.745 493.153 641.904 511.619 641.314" stroke="#FBFBFD" stroke-width="2" stroke-miterlimit="10" stroke-linecap="round" stroke-linejoin="round"/>
<path d="M470.938 665.482C470.938 665.482 489.13 667.201 510.897 651.177" stroke="#FBFBFD" stroke-width="2" stroke-miterlimit="10" stroke-linecap="round" stroke-linejoin="round"/>
<path d="M500.581 615.887C500.581 615.887 492.225 621.329 482.425 622.567" stroke="#FBFBFD" stroke-width="2" stroke-miterlimit="10" stroke-linecap="round" stroke-linejoin="round"/>
<path d="M483.327 648.342C483.327 648.342 480.881 641.767 483.324 641.767C485.6 641.767 483.327 648.342 483.327 648.342Z" stroke="#FBFBFD" stroke-width="2" stroke-miterlimit="10" stroke-linecap="round" stroke-linejoin="round"/>
<path d="M506.743 671.854C506.743 671.854 503.768 663.858 506.74 663.858C509.508 663.858 506.743 671.854 506.743 671.854Z" stroke="#FBFBFD" stroke-width="2" stroke-miterlimit="10" stroke-linecap="round" stroke-linejoin="round"/>
<path d="M474.924 705.794C474.924 705.794 471.008 695.27 474.919 695.27C478.562 695.27 474.924 705.794 474.924 705.794Z" stroke="#FBFBFD" stroke-width="2" stroke-miterlimit="10" stroke-linecap="round" stroke-linejoin="round"/>
<path d="M490.685 606.475C491.589 606.475 492.321 605.742 492.321 604.839C492.321 603.935 491.589 603.202 490.685 603.202C489.781 603.202 489.048 603.935 489.048 604.839C489.048 605.742 489.781 606.475 490.685 606.475Z" fill="#FBFBFD"/>
<path d="M495.976 608.405C496.88 608.405 497.613 607.673 497.613 606.769C497.613 605.865 496.88 605.133 495.976 605.133C495.072 605.133 494.34 605.865 494.34 606.769C494.34 607.673 495.072 608.405 495.976 608.405Z" fill="#FBFBFD"/>
<path d="M485.872 623.676C486.776 623.676 487.509 622.944 487.509 622.04C487.509 621.136 486.776 620.404 485.872 620.404C484.969 620.404 484.236 621.136 484.236 622.04C484.236 622.944 484.969 623.676 485.872 623.676Z" fill="#FBFBFD"/>
<path d="M492.622 621.613C493.526 621.613 494.259 620.881 494.259 619.977C494.259 619.073 493.526 618.34 492.622 618.34C491.719 618.34 490.986 619.073 490.986 619.977C490.986 620.881 491.719 621.613 492.622 621.613Z" fill="#FBFBFD"/>
<path d="M498.179 619.036C499.083 619.036 499.816 618.304 499.816 617.4C499.816 616.496 499.083 615.763 498.179 615.763C497.276 615.763 496.543 616.496 496.543 617.4C496.543 618.304 497.276 619.036 498.179 619.036Z" fill="#FBFBFD"/>
<path d="M484.337 635.956C485.24 635.956 485.973 635.223 485.973 634.319C485.973 633.416 485.24 632.683 484.337 632.683C483.433 632.683 482.7 633.416 482.7 634.319C482.7 635.223 483.433 635.956 484.337 635.956Z" fill="#FBFBFD"/>
<path d="M490.649 638.857C491.553 638.857 492.286 638.124 492.286 637.22C492.286 636.316 491.553 635.584 490.649 635.584C489.745 635.584 489.013 636.316 489.013 637.22C489.013 638.124 489.745 638.857 490.649 638.857Z" fill="#FBFBFD"/>
<path d="M497.817 640.589C498.747 640.589 499.501 639.835 499.501 638.905C499.501 637.974 498.747 637.22 497.817 637.22C496.886 637.22 496.132 637.974 496.132 638.905C496.132 639.835 496.886 640.589 497.817 640.589Z" fill="#FBFBFD"/>
<path d="M505.835 642.274C506.766 642.274 507.52 641.52 507.52 640.589C507.52 639.659 506.766 638.905 505.835 638.905C504.905 638.905 504.151 639.659 504.151 640.589C504.151 641.52 504.905 642.274 505.835 642.274Z" fill="#FBFBFD"/>
<path d="M476.44 666.885C477.37 666.885 478.125 666.13 478.125 665.2C478.125 664.27 477.37 663.515 476.44 663.515C475.51 663.515 474.755 664.27 474.755 665.2C474.755 666.13 475.51 666.885 476.44 666.885Z" fill="#FBFBFD"/>
<path d="M484.763 665.318C485.694 665.318 486.448 664.563 486.448 663.633C486.448 662.703 485.694 661.948 484.763 661.948C483.833 661.948 483.079 662.703 483.079 663.633C483.079 664.563 483.833 665.318 484.763 665.318Z" fill="#FBFBFD"/>
<path d="M492.315 663.228C493.245 663.228 493.999 662.473 493.999 661.543C493.999 660.613 493.245 659.858 492.315 659.858C491.384 659.858 490.63 660.613 490.63 661.543C490.63 662.473 491.384 663.228 492.315 663.228Z" fill="#FBFBFD"/>
<path d="M499.501 659.987C500.432 659.987 501.186 659.233 501.186 658.302C501.186 657.372 500.432 656.618 499.501 656.618C498.571 656.618 497.817 657.372 497.817 658.302C497.817 659.233 498.571 659.987 499.501 659.987Z" fill="#FBFBFD"/>
<path d="M506.173 656.376C507.103 656.376 507.858 655.622 507.858 654.692C507.858 653.761 507.103 653.007 506.173 653.007C505.243 653.007 504.488 653.761 504.488 654.692C504.488 655.622 505.243 656.376 506.173 656.376Z" fill="#FBFBFD"/>
<path d="M597.26 628.498C597.26 628.498 600.667 632.39 601.834 639.638C603.001 646.886 601.834 654.073 601.834 654.073C601.834 654.073 565.851 650.2 565.851 650.013C565.851 649.826 565.618 638.392 573.879 628.498C582.139 618.604 597.26 628.498 597.26 628.498Z" fill="#303E4E"/>
<path d="M576.539 606.703C568.231 611.137 567.842 619.408 567.842 619.408C567.842 619.408 571.132 614.31 576.072 613.144C580.433 612.114 585.219 615.524 585.219 615.524C585.219 615.524 584.799 619.622 586.246 623.43C587.019 625.464 587.763 626.845 588.29 627.696C589.3 627.341 590.449 627.386 591.472 627.924C593.423 628.949 594.173 631.362 593.147 633.313C592.122 635.264 589.709 636.014 587.758 634.989C587.55 634.88 587.359 634.752 587.179 634.613C586.729 636.24 585.767 639.439 584.519 642.033C582.139 646.98 577.57 649.826 580.251 652.207C582.932 654.587 589 645.113 589 645.113C589 645.113 582.844 656.967 586.692 658.787C590.54 660.607 595.207 648.706 596.187 641.239C596.919 635.661 596.714 631.774 596.563 630.163C598.319 629.232 599.839 626.936 600.387 622.092C601.974 608.057 584.846 602.27 576.539 606.703Z" fill="#303E4E"/>
<path d="M610.069 686.021C610.069 686.021 613.929 674.887 610.483 663.823C609.23 659.801 606.713 656.355 603.777 653.522C599.021 655.169 594.755 655.998 590.966 656.25C589.575 658.313 588.08 659.444 586.692 658.787C585.808 658.369 585.456 657.418 585.432 656.206C572.377 655.063 566.745 646.743 567.922 645.902C567.363 646.171 564.868 647.399 562.235 649.095C556.038 653.086 546.657 668.054 546.657 668.054L537.432 661.209L528.726 668.054C528.726 668.054 535.767 681.432 541.97 684.326C548.174 687.221 553.826 685.429 553.826 685.429C553.826 685.429 554.71 687.554 557.589 691.22C560.308 694.683 563.117 696.362 563.117 696.362C563.117 696.362 556.307 708.932 554.791 719.03C553.274 729.128 552.861 739.329 552.861 739.329C552.861 739.329 561.618 744.706 579.433 747.049C597.249 749.393 608.691 748.565 608.691 748.565C608.691 748.565 627.163 729.791 627.163 714.227C627.163 698.663 610.069 686.021 610.069 686.021Z" fill="#FE434C"/>
<path d="M593.149 633.312C592.122 635.264 589.708 636.015 587.756 634.989C587.701 634.959 587.645 634.929 587.592 634.897C587.547 634.87 587.501 634.841 587.458 634.811C587.409 634.782 587.363 634.749 587.317 634.716C587.271 634.683 587.225 634.651 587.179 634.615C586.743 634.28 586.395 633.867 586.136 633.404L586.891 635.625C586.376 637.367 585.542 639.905 584.519 642.034C582.138 646.98 577.569 649.827 580.252 652.205C582.82 654.488 588.504 645.875 588.97 645.163C588.649 645.799 585.349 652.343 585.428 656.207C571.993 655.029 566.42 646.249 568.04 645.845C570.74 645.173 573.052 644.943 575.653 644.76L575.253 640.289C573.439 640.594 571.366 640.43 569.11 639.354C560.628 635.313 565.082 624.476 567.378 620.238C567.535 619.95 567.689 619.671 567.84 619.409C567.84 619.409 567.84 619.409 567.844 619.405C567.847 619.402 567.853 619.392 567.863 619.376C568.149 618.946 571.363 614.256 576.073 613.144C580.432 612.114 585.218 615.525 585.218 615.525C585.218 615.525 584.798 619.622 586.244 623.43C587.018 625.463 587.763 626.844 588.291 627.697C588.75 627.536 589.236 627.454 589.728 627.471C589.951 627.477 590.171 627.5 590.394 627.543H590.397C590.466 627.559 590.535 627.576 590.607 627.592C590.61 627.592 590.613 627.592 590.62 627.595C590.833 627.651 591.043 627.723 591.25 627.815C591.325 627.848 591.401 627.884 591.473 627.923C593.424 628.95 594.172 631.361 593.149 633.312Z" fill="#C6725A"/>
<path d="M603.779 653.521C599.023 655.17 594.756 656 590.964 656.256C592.522 653.944 593.949 650.457 594.943 646.997C600.535 650.136 603.779 653.521 603.779 653.521Z" fill="#C6725A"/>
<path d="M536.673 661.806C536.673 661.806 532.01 651.208 530.888 651.567C529.766 651.926 530.215 656.279 530.215 656.279C530.215 656.279 526.41 652.094 524.92 653.362C523.891 654.237 525.385 656.111 525.385 656.111C525.385 656.111 523.895 655.352 523.132 656.206C522.369 657.06 523.915 658.459 523.915 658.459C523.915 658.459 522.355 657.895 521.804 658.72C521.258 659.537 522.657 660.902 522.657 660.902C522.657 660.902 521.758 660.75 521.353 661.661C520.784 662.942 523.699 664.735 524.608 664.683C525.544 664.629 525.413 663.823 525.413 663.823L529.411 667.515L536.673 661.806Z" fill="#C6725A"/>
<path d="M572.517 677.911C572.517 677.911 569.149 672.865 568.093 672.732C566.731 672.561 567.383 674.975 567.383 674.975C567.383 674.975 565.088 673.604 564.239 674.126C563.39 674.649 564.051 675.702 564.051 675.702C564.051 675.702 562.736 675.349 562.279 676.068C561.822 676.786 562.508 677.883 562.508 677.883C562.508 677.883 561.585 677.662 561.213 678.25C560.842 678.838 561.626 679.753 561.626 679.753C561.626 679.753 561.005 679.909 560.912 680.773C560.741 682.366 567.529 685.111 567.529 685.111L572.517 677.911Z" fill="#C6725A"/>
<path d="M523.97 664.551C523.97 664.551 525.027 664.888 525.278 664.381C525.928 663.069 524.199 661.732 524.199 661.732C524.199 661.732 526.808 662.989 527.164 662.064C527.52 661.139 524.887 658.957 524.887 658.957C524.887 658.957 527.899 660.655 528.231 659.953C528.563 659.252 526.239 656.751 526.239 656.751C526.239 656.751 528.777 659.171 529.488 658.341C530.2 657.51 528.255 654.64 528.255 654.64C528.255 654.64 526.817 654.083 526.101 655.097C525.385 656.111 522.631 662.038 522.905 662.86C523.179 663.681 523.97 664.551 523.97 664.551Z" fill="#C6725A"/>
<path d="M633.687 737.048C633.538 736.602 633.314 736.109 633.028 735.579L632.387 735.677L629.897 735.985C630.487 733.918 626.781 728.338 624.628 725.334C623.701 727.565 622.578 729.758 621.363 731.853C621.797 732.276 624.087 734.48 626.615 736.391L617.747 737.489C613.189 743.992 608.691 748.565 608.691 748.565C608.691 748.565 597.249 749.393 579.433 747.049C577.038 746.734 574.812 746.363 572.743 745.959C572.726 750.476 574.114 758.718 584.326 759.544C598.466 760.688 630.507 744.096 630.507 744.096C630.507 744.096 640.152 753.634 642.768 751.317C644.867 749.457 636.91 740.508 633.687 737.048Z" fill="#C6725A"/>
<path d="M557.821 741.674C557.931 745.036 558.927 750.432 563.973 752.188C571.493 754.803 576.888 751.697 576.888 751.697L577.15 746.722C568.249 745.366 561.818 743.285 557.821 741.674Z" fill="#C6725A"/>
<path d="M575.252 640.289L575.486 642.895C578.458 642.622 582.353 639.018 582.53 635.983C582.53 635.983 579.683 639.544 575.252 640.289Z" fill="#AB4537"/>
<path d="M636.556 737.148L638.926 736.576L638.273 734.778L633.919 735.443C631.8 730.908 627.332 724.827 627.332 724.827L629.703 724.255L629.049 722.457L625.519 722.996C625.248 723.778 624.95 724.558 624.628 725.334C626.781 728.338 630.487 733.918 629.897 735.985L632.387 735.677C632.387 735.677 640.765 746.473 638.926 748.707C637.537 750.395 635.393 748.37 635.393 748.37C635.393 748.37 640.97 754.15 643.749 752.433C646.528 750.717 636.556 737.148 636.556 737.148Z" fill="#303E4E"/>
<path d="M596.563 630.163C596.563 630.163 595.682 630.692 594.116 631.028" stroke="#636E77" stroke-width="1.5" stroke-miterlimit="10" stroke-linecap="round" stroke-linejoin="round"/>
<path d="M589 645.113C589 645.113 591.687 641.367 591.975 635.254" stroke="#636E77" stroke-width="1.5" stroke-miterlimit="10" stroke-linecap="round" stroke-linejoin="round"/>
<path d="M587.002 613.117C587.002 613.117 583.234 607.804 575.15 609.221" stroke="#636E77" stroke-width="1.5" stroke-miterlimit="10" stroke-linecap="round" stroke-linejoin="round"/>
<path d="M588.785 612.364C588.785 612.364 589.121 608.204 587.002 606.477" stroke="#636E77" stroke-width="1.5" stroke-miterlimit="10" stroke-linecap="round" stroke-linejoin="round"/>
<path d="M590.789 612.363C590.789 612.363 593.634 611.065 593.607 609.22" stroke="#636E77" stroke-width="1.5" stroke-miterlimit="10" stroke-linecap="round" stroke-linejoin="round"/>
<path d="M587.903 615.41C587.903 615.41 587.042 623.999 593.281 628.081" stroke="#636E77" stroke-width="1.5" stroke-miterlimit="10" stroke-linecap="round" stroke-linejoin="round"/>
<path d="M589.923 614.797C589.923 614.797 593.281 622.88 599.246 623.43" stroke="#636E77" stroke-width="1.5" stroke-miterlimit="10" stroke-linecap="round" stroke-linejoin="round"/>
<path d="M591.24 614.118C591.24 614.118 595.793 616.697 598.461 615.119" stroke="#636E77" stroke-width="1.5" stroke-miterlimit="10" stroke-linecap="round" stroke-linejoin="round"/>
<path d="M596.363 632.169C596.363 632.169 597.213 638.712 595.368 645.708" stroke="#636E77" stroke-width="1.5" stroke-miterlimit="10" stroke-linecap="round" stroke-linejoin="round"/>
<path d="M579.421 625.614C579.421 625.614 578.522 627.522 577.8 627.143C577.042 626.744 578.119 625.067 578.119 625.067C578.119 625.067 578.587 625.175 579.421 625.614Z" fill="#303E4E"/>
<path d="M571.132 621.38C571.132 621.38 570.233 623.288 569.511 622.909C568.753 622.51 569.83 620.833 569.83 620.833C569.83 620.833 570.298 620.941 571.132 621.38Z" fill="#303E4E"/>
<path d="M580.251 626.326C580.251 626.326 579.199 625.151 577.736 625.004" stroke="#303E4E" stroke-width="2" stroke-miterlimit="10" stroke-linecap="round" stroke-linejoin="round"/>
<path d="M571.962 622.092C571.962 622.092 570.91 620.917 569.447 620.77" stroke="#303E4E" stroke-width="2" stroke-miterlimit="10" stroke-linecap="round" stroke-linejoin="round"/>
<path d="M569.753 618.291C569.753 618.291 572.032 617.816 573.409 620.19" stroke="#303E4E" stroke-width="2" stroke-miterlimit="10" stroke-linecap="round" stroke-linejoin="round"/>
<path d="M577.968 621.896C577.968 621.896 581.372 621.69 582.559 624.967" stroke="#303E4E" stroke-width="2" stroke-miterlimit="10" stroke-linecap="round" stroke-linejoin="round"/>
<path d="M591.021 635.973C591.446 636.785 591.687 637.709 591.687 638.689C591.687 641.926 589.062 644.551 585.825 644.551C582.587 644.551 579.963 641.926 579.963 638.689C579.963 635.451 582.587 632.827 585.825 632.827C586.448 632.827 587.049 632.924 587.613 633.105" stroke="#F1AF78" stroke-width="2" stroke-miterlimit="10" stroke-linecap="round" stroke-linejoin="round"/>
<path d="M573.011 624.967C573.011 624.967 572.224 626.463 570.136 626.446C568.452 626.432 568.025 628.733 570.058 629.332" stroke="#AB4537" stroke-width="1.5" stroke-miterlimit="10" stroke-linecap="round" stroke-linejoin="round"/>
<path d="M574.182 632.46C573.945 633.085 572.55 634.101 571.249 633.195" stroke="#AB4537" stroke-width="1.5" stroke-miterlimit="10" stroke-linecap="round" stroke-linejoin="round"/>
<path d="M589.933 631.753C588.939 630.497 588.259 630.534 587.2 630.71C588.528 629.523 589.727 629.172 591.387 630.387" stroke="#AB4537" stroke-width="1.5" stroke-miterlimit="10" stroke-linecap="round" stroke-linejoin="round"/>
<path d="M626.614 736.392L629.905 735.984" stroke="#AB4537" stroke-width="1.5" stroke-miterlimit="10" stroke-linecap="round" stroke-linejoin="round"/>
<path d="M573.999 752.758C573.999 752.758 573.018 750.509 572.767 746.458" stroke="#AB4537" stroke-width="1.5" stroke-miterlimit="10" stroke-linecap="round" stroke-linejoin="round"/>
<path d="M572.474 678.009C572.474 678.009 569.149 672.865 568.093 672.733C566.731 672.561 567.383 674.976 567.383 674.976C567.383 674.976 565.088 673.604 564.239 674.126C563.39 674.649 564.051 675.702 564.051 675.702C564.051 675.702 562.736 675.349 562.279 676.068C561.822 676.786 562.508 677.883 562.508 677.883C562.508 677.883 561.585 677.662 561.213 678.25C560.842 678.838 561.626 679.753 561.626 679.753C561.626 679.753 561.005 679.909 560.912 680.774C560.741 682.366 567.383 685.111 567.383 685.111L572.474 678.009Z" stroke="#AB4537" stroke-width="1.5" stroke-miterlimit="10" stroke-linecap="round" stroke-linejoin="round"/>
<path d="M528.255 654.641C528.255 654.641 530.2 657.511 529.488 658.341C528.777 659.171 526.239 656.752 526.239 656.752C526.239 656.752 528.563 659.252 528.231 659.954C527.899 660.655 524.887 658.957 524.887 658.957C524.887 658.957 527.52 661.139 527.164 662.064C526.808 662.989 524.199 661.732 524.199 661.732C524.199 661.732 525.928 663.069 525.278 664.381C525.027 664.888 523.97 664.551 523.97 664.551" stroke="#AB4537" stroke-width="1.5" stroke-miterlimit="10" stroke-linecap="round" stroke-linejoin="round"/>
<path d="M563.276 681.527C563.19 681.402 563.36 678.294 566.461 676.026" stroke="#AB4537" stroke-width="1.5" stroke-miterlimit="10" stroke-linecap="round" stroke-linejoin="round"/>
<path d="M530.631 664.294C530.674 663.886 529.943 661.838 531.419 659.574" stroke="#AB4537" stroke-width="1.5" stroke-miterlimit="10" stroke-linecap="round" stroke-linejoin="round"/>
<path d="M571.921 736.392C571.921 736.392 571.885 719.46 584.102 712.354" stroke="#E1283A" stroke-width="2" stroke-miterlimit="10" stroke-linecap="round" stroke-linejoin="round"/>
<path d="M604.361 655.717C604.361 655.717 598.543 655.717 595.368 661.776" stroke="#E1283A" stroke-width="2" stroke-miterlimit="10" stroke-linecap="round" stroke-linejoin="round"/>
<path d="M559.822 656.992L550.786 675.169C550.786 675.169 551.474 680.677 553.826 685.43" stroke="#E1283A" stroke-width="2" stroke-miterlimit="10" stroke-linecap="round" stroke-linejoin="round"/>
<path d="M592.446 669.123L587.2 684.524" stroke="#E1283A" stroke-width="2" stroke-miterlimit="10" stroke-linecap="round" stroke-linejoin="round"/>
<path d="M610.069 686.021C610.069 686.021 604.4 706.398 597.239 708.547C579.433 713.891 566.731 686.021 566.731 686.021L573.428 676.679L589.293 686.021" stroke="#E1283A" stroke-width="2" stroke-miterlimit="10" stroke-linecap="round" stroke-linejoin="round"/>
<path d="M563.117 696.362C563.117 696.362 570.041 700.157 573.362 700.489" stroke="#E1283A" stroke-width="2" stroke-miterlimit="10" stroke-linecap="round" stroke-linejoin="round"/>
<path d="M515.835 722.199C517.868 722.199 519.516 720.551 519.516 718.518C519.516 716.485 517.868 714.837 515.835 714.837C513.802 714.837 512.154 716.485 512.154 718.518C512.154 720.551 513.802 722.199 515.835 722.199Z" fill="#FE434C"/>
<path d="M545.681 727.064C549.107 727.064 551.884 724.286 551.884 720.861C551.884 717.435 549.107 714.658 545.681 714.658C542.256 714.658 539.479 717.435 539.479 720.861C539.479 724.286 542.256 727.064 545.681 727.064Z" fill="#FE434C"/>
<path d="M528.352 724.1C531.21 724.1 533.527 721.783 533.527 718.925C533.527 716.067 531.21 713.75 528.352 713.75C525.493 713.75 523.177 716.067 523.177 718.925C523.177 721.783 525.493 724.1 528.352 724.1Z" fill="#FE434C"/>
<path d="M513.53 715.661C513.53 715.661 512.418 714.427 513.372 713.897C514.326 713.367 514.742 715.031 514.742 715.031L513.53 715.661Z" fill="#F1AF78"/>
<path d="M535.022 713.942C535.022 713.942 534.334 711.572 535.954 711.481C537.573 711.39 537.053 713.886 537.053 713.886L535.022 713.942Z" fill="#F1AF78"/>
<path d="M543.736 714.988C543.736 714.988 542.713 712.383 544.531 712.112C546.35 711.841 546.022 714.713 546.022 714.713L543.736 714.988Z" fill="#F1AF78"/>
<path d="M553.672 715.473C553.672 715.473 553.009 713.519 554.358 713.383C555.707 713.247 555.366 715.35 555.366 715.35L553.672 715.473Z" fill="#F1AF78"/>
<path d="M526.53 714.095C526.53 714.095 525.589 711.959 527.096 711.671C528.603 711.383 528.427 713.788 528.427 713.788L526.53 714.095Z" fill="#F1AF78"/>
<path d="M519.686 712.826C519.686 712.826 518.997 710.456 520.617 710.365C522.237 710.274 521.717 712.77 521.717 712.77L519.686 712.826Z" fill="#F1AF78"/>
<path d="M536.257 724.731C539.279 724.731 541.729 722.282 541.729 719.259C541.729 716.237 539.279 713.787 536.257 713.787C533.235 713.787 530.785 716.237 530.785 719.259C530.785 722.282 533.235 724.731 536.257 724.731Z" fill="#E1283A"/>
<path d="M554.9 724.442C557.427 724.442 559.475 722.394 559.475 719.868C559.475 717.341 557.427 715.293 554.9 715.293C552.374 715.293 550.326 717.341 550.326 719.868C550.326 722.394 552.374 724.442 554.9 724.442Z" fill="#E1283A"/>
<path d="M520.92 723.615C523.942 723.615 526.392 721.165 526.392 718.143C526.392 715.121 523.942 712.671 520.92 712.671C517.898 712.671 515.448 715.121 515.448 718.143C515.448 721.165 517.898 723.615 520.92 723.615Z" fill="#E1283A"/>
<path d="M559.672 719.913L545.77 723.289C545.77 723.289 545.673 724.142 545.581 723.078L512.442 720.167C510.155 730.468 509.621 741.747 511.357 755.321C534.275 759.808 546.37 759.169 546.37 759.169C546.37 759.169 553.24 757.604 559.672 753.681C561.66 742.994 561.169 731.598 559.672 719.913Z" fill="#CC7940"/>
<path d="M545.807 725.495C545.807 735.719 546.175 745.663 546.358 758.45" stroke="#F1AF78" stroke-width="2" stroke-miterlimit="10" stroke-linecap="round" stroke-linejoin="round"/>
<path d="M559.671 719.913L545.77 723.289L549.599 736.261L564.523 728.021L559.671 719.913Z" fill="#F1AF78"/>
<path d="M506.183 733.545L512.442 720.167L545.77 723.289L540.617 737.114L506.183 733.545Z" fill="#F1AF78"/>
<path d="M471.732 677.198C479.375 701.77 523.871 707.175 528.973 659.107C528.973 659.107 529.782 692.881 546.477 692.953C555.293 692.992 560.201 688.213 562.87 683.694" stroke="#FBFBFD" stroke-width="2" stroke-miterlimit="10" stroke-linecap="round" stroke-linejoin="round"/>
<path d="M513.372 713.897C513.372 713.897 508.474 709.564 510.484 708.492C512.355 707.493 513.372 713.897 513.372 713.897Z" stroke="#FBFBFD" stroke-width="2" stroke-miterlimit="10" stroke-linecap="round" stroke-linejoin="round"/>
<path d="M535.954 711.481C535.954 711.481 533.635 704.867 535.723 704.59C537.811 704.313 535.954 711.481 535.954 711.481Z" stroke="#FBFBFD" stroke-width="2" stroke-miterlimit="10" stroke-linecap="round" stroke-linejoin="round"/>
<path d="M544.531 712.112C544.531 712.112 541.227 704.887 543.555 704.358C545.884 703.829 544.531 712.112 544.531 712.112Z" stroke="#FBFBFD" stroke-width="2" stroke-miterlimit="10" stroke-linecap="round" stroke-linejoin="round"/>
<path d="M554.358 713.383C554.358 713.383 552.176 707.945 553.91 707.637C555.643 707.328 554.358 713.383 554.358 713.383Z" stroke="#FBFBFD" stroke-width="2" stroke-miterlimit="10" stroke-linecap="round" stroke-linejoin="round"/>
<path d="M527.096 711.671C527.096 711.671 524.095 705.761 526.018 705.24C527.941 704.72 527.096 711.671 527.096 711.671Z" stroke="#FBFBFD" stroke-width="2" stroke-miterlimit="10" stroke-linecap="round" stroke-linejoin="round"/>
<path d="M520.617 710.365C520.617 710.365 518.298 703.751 520.386 703.474C522.475 703.197 520.617 710.365 520.617 710.365Z" stroke="#FBFBFD" stroke-width="2" stroke-miterlimit="10" stroke-linecap="round" stroke-linejoin="round"/>
<path d="M525.339 721.722C525.339 721.722 522.553 749.966 529.954 750.515C537.355 751.063 542.402 723.025 542.402 723.025" stroke="#FBFBFD" stroke-width="2" stroke-miterlimit="10" stroke-linecap="round" stroke-linejoin="round"/>
<path d="M518.181 720.616C518.181 720.616 517.802 754.509 512.528 757.703C507.064 761.013 500.281 757.183 498.948 756.118C495.156 753.089 497.381 749.543 504.481 752.783C511.582 756.023 509.426 768.112 496.535 767.216C483.644 766.32 483.782 755.635 483.782 755.635" stroke="#FBFBFD" stroke-width="2" stroke-miterlimit="10" stroke-linecap="round" stroke-linejoin="round"/>
<path d="M547.984 722.608C547.984 722.608 550.657 741.526 560.408 737.842C570.158 734.159 559.671 719.913 559.671 719.913" stroke="#FBFBFD" stroke-width="2" stroke-miterlimit="10" stroke-linecap="round" stroke-linejoin="round"/>
<path d="M567.383 674.976L568.697 731.357" stroke="#FBFBFD" stroke-width="2" stroke-miterlimit="10" stroke-linecap="round" stroke-linejoin="round"/>
<path d="M525.157 727.671C526.04 727.671 526.756 726.956 526.756 726.072C526.756 725.189 526.04 724.473 525.157 724.473C524.274 724.473 523.558 725.189 523.558 726.072C523.558 726.956 524.274 727.671 525.157 727.671Z" fill="#FBFBFD"/>
<path d="M524.794 734.433C525.677 734.433 526.393 733.717 526.393 732.834C526.393 731.951 525.677 731.235 524.794 731.235C523.911 731.235 523.195 731.951 523.195 732.834C523.195 733.717 523.911 734.433 524.794 734.433Z" fill="#FBFBFD"/>
<path d="M525.157 740.991C526.04 740.991 526.756 740.275 526.756 739.392C526.756 738.509 526.04 737.793 525.157 737.793C524.274 737.793 523.558 738.509 523.558 739.392C523.558 740.275 524.274 740.991 525.157 740.991Z" fill="#FBFBFD"/>
<path d="M526.138 747.262C527.021 747.262 527.737 746.546 527.737 745.662C527.737 744.779 527.021 744.063 526.138 744.063C525.255 744.063 524.539 744.779 524.539 745.662C524.539 746.546 525.255 747.262 526.138 747.262Z" fill="#FBFBFD"/>
<path d="M529.951 752.122C530.834 752.122 531.55 751.406 531.55 750.523C531.55 749.639 530.834 748.924 529.951 748.924C529.067 748.924 528.352 749.639 528.352 750.523C528.352 751.406 529.067 752.122 529.951 752.122Z" fill="#FBFBFD"/>
<path d="M535.099 747.958C535.982 747.958 536.698 747.242 536.698 746.359C536.698 745.476 535.982 744.76 535.099 744.76C534.216 744.76 533.5 745.476 533.5 746.359C533.5 747.242 534.216 747.958 535.099 747.958Z" fill="#FBFBFD"/>
<path d="M538.19 741.805C539.073 741.805 539.789 741.09 539.789 740.206C539.789 739.323 539.073 738.607 538.19 738.607C537.307 738.607 536.591 739.323 536.591 740.206C536.591 741.09 537.307 741.805 538.19 741.805Z" fill="#FBFBFD"/>
<path d="M539.789 735.144C540.672 735.144 541.388 734.428 541.388 733.545C541.388 732.662 540.672 731.946 539.789 731.946C538.906 731.946 538.19 732.662 538.19 733.545C538.19 734.428 538.906 735.144 539.789 735.144Z" fill="#FBFBFD"/>
<path d="M541.388 728.693C542.271 728.693 542.987 727.977 542.987 727.094C542.987 726.211 542.271 725.495 541.388 725.495C540.505 725.495 539.789 726.211 539.789 727.094C539.789 727.977 540.505 728.693 541.388 728.693Z" fill="#FBFBFD"/>
<path d="M517.918 723.321C518.801 723.321 519.517 722.605 519.517 721.722C519.517 720.838 518.801 720.123 517.918 720.123C517.035 720.123 516.319 720.838 516.319 721.722C516.319 722.605 517.035 723.321 517.918 723.321Z" fill="#FBFBFD"/>
<path d="M517.918 729.686C518.801 729.686 519.517 728.97 519.517 728.087C519.517 727.203 518.801 726.488 517.918 726.488C517.035 726.488 516.319 727.203 516.319 728.087C516.319 728.97 517.035 729.686 517.918 729.686Z" fill="#FBFBFD"/>
<path d="M516.839 743.404C517.722 743.404 518.438 742.688 518.438 741.805C518.438 740.922 517.722 740.206 516.839 740.206C515.956 740.206 515.24 740.922 515.24 741.805C515.24 742.688 515.956 743.404 516.839 743.404Z" fill="#FBFBFD"/>
<path d="M517.659 736.349C518.542 736.349 519.258 735.634 519.258 734.75C519.258 733.867 518.542 733.151 517.659 733.151C516.776 733.151 516.06 733.867 516.06 734.75C516.06 735.634 516.776 736.349 517.659 736.349Z" fill="#FBFBFD"/>
<path d="M515.82 750.459C516.703 750.459 517.419 749.743 517.419 748.86C517.419 747.977 516.703 747.261 515.82 747.261C514.937 747.261 514.221 747.977 514.221 748.86C514.221 749.743 514.937 750.459 515.82 750.459Z" fill="#FBFBFD"/>
<path d="M514.221 757.337C515.104 757.337 515.82 756.621 515.82 755.738C515.82 754.855 515.104 754.139 514.221 754.139C513.338 754.139 512.622 754.855 512.622 755.738C512.622 756.621 513.338 757.337 514.221 757.337Z" fill="#FBFBFD"/>
<path d="M508.246 760.27C509.129 760.27 509.845 759.554 509.845 758.671C509.845 757.788 509.129 757.072 508.246 757.072C507.363 757.072 506.647 757.788 506.647 758.671C506.647 759.554 507.363 760.27 508.246 760.27Z" fill="#FBFBFD"/>
<path d="M500.981 758.671C501.864 758.671 502.58 757.955 502.58 757.072C502.58 756.189 501.864 755.473 500.981 755.473C500.098 755.473 499.382 756.189 499.382 757.072C499.382 757.955 500.098 758.671 500.981 758.671Z" fill="#FBFBFD"/>
<path d="M497.695 753.721C498.578 753.721 499.294 753.005 499.294 752.122C499.294 751.239 498.578 750.523 497.695 750.523C496.812 750.523 496.096 751.239 496.096 752.122C496.096 753.005 496.812 753.721 497.695 753.721Z" fill="#FBFBFD"/>
<path d="M505.048 754.622C505.931 754.622 506.647 753.906 506.647 753.023C506.647 752.14 505.931 751.424 505.048 751.424C504.165 751.424 503.449 752.14 503.449 753.023C503.449 753.906 504.165 754.622 505.048 754.622Z" fill="#FBFBFD"/>
<path d="M506.647 765.304C507.53 765.304 508.246 764.589 508.246 763.705C508.246 762.822 507.53 762.106 506.647 762.106C505.764 762.106 505.048 762.822 505.048 763.705C505.048 764.589 505.764 765.304 506.647 765.304Z" fill="#FBFBFD"/>
<path d="M500.366 768.502C501.249 768.502 501.965 767.787 501.965 766.903C501.965 766.02 501.249 765.304 500.366 765.304C499.483 765.304 498.767 766.02 498.767 766.903C498.767 767.787 499.483 768.502 500.366 768.502Z" fill="#FBFBFD"/>
<path d="M492.967 767.887C493.85 767.887 494.566 767.172 494.566 766.288C494.566 765.405 493.85 764.689 492.967 764.689C492.084 764.689 491.368 765.405 491.368 766.288C491.368 767.172 492.084 767.887 492.967 767.887Z" fill="#FBFBFD"/>
<path d="M486.97 764.867C487.853 764.867 488.569 764.151 488.569 763.268C488.569 762.385 487.853 761.669 486.97 761.669C486.086 761.669 485.37 762.385 485.37 763.268C485.37 764.151 486.086 764.867 486.97 764.867Z" fill="#FBFBFD"/>
<path d="M484.211 760.049C485.094 760.049 485.81 759.333 485.81 758.45C485.81 757.567 485.094 756.851 484.211 756.851C483.328 756.851 482.612 757.567 482.612 758.45C482.612 759.333 483.328 760.049 484.211 760.049Z" fill="#FBFBFD"/>
<path d="M548.618 727.094C549.502 727.094 550.217 726.378 550.217 725.495C550.217 724.612 549.502 723.896 548.618 723.896C547.735 723.896 547.019 724.612 547.019 725.495C547.019 726.378 547.735 727.094 548.618 727.094Z" fill="#FBFBFD"/>
<path d="M550.35 732.819C551.233 732.819 551.949 732.103 551.949 731.22C551.949 730.337 551.233 729.621 550.35 729.621C549.466 729.621 548.75 730.337 548.75 731.22C548.75 732.103 549.466 732.819 550.35 732.819Z" fill="#FBFBFD"/>
<path d="M553.301 738.18C554.184 738.18 554.9 737.464 554.9 736.581C554.9 735.698 554.184 734.982 553.301 734.982C552.418 734.982 551.702 735.698 551.702 736.581C551.702 737.464 552.418 738.18 553.301 738.18Z" fill="#FBFBFD"/>
<path d="M561.271 724.21C562.154 724.21 562.87 723.494 562.87 722.611C562.87 721.728 562.154 721.012 561.271 721.012C560.387 721.012 559.672 721.728 559.672 722.611C559.672 723.494 560.387 724.21 561.271 724.21Z" fill="#FBFBFD"/>
<path d="M563.868 729.96C564.752 729.96 565.467 729.245 565.467 728.361C565.467 727.478 564.752 726.762 563.868 726.762C562.985 726.762 562.269 727.478 562.269 728.361C562.269 729.245 562.985 729.96 563.868 729.96Z" fill="#FBFBFD"/>
<path d="M564.349 736.017C565.233 736.017 565.948 735.301 565.948 734.418C565.948 733.535 565.233 732.819 564.349 732.819C563.466 732.819 562.75 733.535 562.75 734.418C562.75 735.301 563.466 736.017 564.349 736.017Z" fill="#FBFBFD"/>
<path d="M559.379 739.547C560.262 739.547 560.978 738.831 560.978 737.948C560.978 737.065 560.262 736.349 559.379 736.349C558.496 736.349 557.78 737.065 557.78 737.948C557.78 738.831 558.496 739.547 559.379 739.547Z" fill="#FBFBFD"/>
<path d="M473.182 683.026C474.086 683.026 474.819 682.293 474.819 681.389C474.819 680.486 474.086 679.753 473.182 679.753C472.278 679.753 471.546 680.486 471.546 681.389C471.546 682.293 472.278 683.026 473.182 683.026Z" fill="#FBFBFD"/>
<path d="M477.853 688.864C478.757 688.864 479.49 688.131 479.49 687.227C479.49 686.323 478.757 685.591 477.853 685.591C476.95 685.591 476.217 686.323 476.217 687.227C476.217 688.131 476.95 688.864 477.853 688.864Z" fill="#FBFBFD"/>
<path d="M483.324 693.157C484.228 693.157 484.961 692.425 484.961 691.521C484.961 690.617 484.228 689.885 483.324 689.885C482.421 689.885 481.688 690.617 481.688 691.521C481.688 692.425 482.421 693.157 483.324 693.157Z" fill="#FBFBFD"/>
<path d="M490.649 696.43C491.553 696.43 492.286 695.698 492.286 694.794C492.286 693.89 491.553 693.157 490.649 693.157C489.745 693.157 489.013 693.89 489.013 694.794C489.013 695.698 489.745 696.43 490.649 696.43Z" fill="#FBFBFD"/>
<path d="M499.597 697.212C500.501 697.212 501.233 696.479 501.233 695.576C501.233 694.672 500.501 693.939 499.597 693.939C498.693 693.939 497.961 694.672 497.961 695.576C497.961 696.479 498.693 697.212 499.597 697.212Z" fill="#FBFBFD"/>
<path d="M507.249 695.576C508.152 695.576 508.885 694.843 508.885 693.939C508.885 693.036 508.152 692.303 507.249 692.303C506.345 692.303 505.612 693.036 505.612 693.939C505.612 694.843 506.345 695.576 507.249 695.576Z" fill="#FBFBFD"/>
<path d="M513.502 691.978C514.405 691.978 515.138 691.245 515.138 690.341C515.138 689.437 514.405 688.705 513.502 688.705C512.598 688.705 511.865 689.437 511.865 690.341C511.865 691.245 512.598 691.978 513.502 691.978Z" fill="#FBFBFD"/>
<path d="M519.515 686.762C520.418 686.762 521.151 686.029 521.151 685.125C521.151 684.222 520.418 683.489 519.515 683.489C518.611 683.489 517.878 684.222 517.878 685.125C517.878 686.029 518.611 686.762 519.515 686.762Z" fill="#FBFBFD"/>
<path d="M523.282 680.929C524.186 680.929 524.919 680.196 524.919 679.292C524.919 678.388 524.186 677.656 523.282 677.656C522.379 677.656 521.646 678.388 521.646 679.292C521.646 680.196 522.379 680.929 523.282 680.929Z" fill="#FBFBFD"/>
<path d="M526.272 673.964C527.175 673.964 527.908 673.231 527.908 672.327C527.908 671.424 527.175 670.691 526.272 670.691C525.368 670.691 524.635 671.424 524.635 672.327C524.635 673.231 525.368 673.964 526.272 673.964Z" fill="#FBFBFD"/>
<path d="M527.902 666.999C528.806 666.999 529.538 666.266 529.538 665.362C529.538 664.458 528.806 663.726 527.902 663.726C526.998 663.726 526.265 664.458 526.265 665.362C526.265 666.266 526.998 666.999 527.902 666.999Z" fill="#FBFBFD"/>
<path d="M530.362 672.234C531.266 672.234 531.998 671.501 531.998 670.597C531.998 669.694 531.266 668.961 530.362 668.961C529.458 668.961 528.726 669.694 528.726 670.597C528.726 671.501 529.458 672.234 530.362 672.234Z" fill="#FBFBFD"/>
<path d="M532.124 679.552C533.028 679.552 533.76 678.82 533.76 677.916C533.76 677.012 533.028 676.279 532.124 676.279C531.22 676.279 530.487 677.012 530.487 677.916C530.487 678.82 531.22 679.552 532.124 679.552Z" fill="#FBFBFD"/>
<path d="M535.607 686.499C536.511 686.499 537.243 685.766 537.243 684.862C537.243 683.958 536.511 683.226 535.607 683.226C534.703 683.226 533.971 683.958 533.971 684.862C533.971 685.766 534.703 686.499 535.607 686.499Z" fill="#FBFBFD"/>
<path d="M540.386 692.303C541.29 692.303 542.022 691.57 542.022 690.666C542.022 689.763 541.29 689.03 540.386 689.03C539.482 689.03 538.749 689.763 538.749 690.666C538.749 691.57 539.482 692.303 540.386 692.303Z" fill="#FBFBFD"/>
<path d="M549.15 694.525C550.054 694.525 550.786 693.792 550.786 692.888C550.786 691.984 550.054 691.252 549.15 691.252C548.246 691.252 547.513 691.984 547.513 692.888C547.513 693.792 548.246 694.525 549.15 694.525Z" fill="#FBFBFD"/>
<path d="M556.94 691.978C557.844 691.978 558.577 691.245 558.577 690.341C558.577 689.437 557.844 688.705 556.94 688.705C556.037 688.705 555.304 689.437 555.304 690.341C555.304 691.245 556.037 691.978 556.94 691.978Z" fill="#FBFBFD"/>
<path d="M561.989 687.066C562.893 687.066 563.626 686.333 563.626 685.429C563.626 684.525 562.893 683.793 561.989 683.793C561.085 683.793 560.353 684.525 560.353 685.429C560.353 686.333 561.085 687.066 561.989 687.066Z" fill="#FBFBFD"/>
<path d="M567.383 680.413C568.287 680.413 569.02 679.68 569.02 678.776C569.02 677.872 568.287 677.14 567.383 677.14C566.48 677.14 565.747 677.872 565.747 678.776C565.747 679.68 566.48 680.413 567.383 680.413Z" fill="#FBFBFD"/>
<path d="M567.767 688.135C568.671 688.135 569.404 687.403 569.404 686.499C569.404 685.595 568.671 684.862 567.767 684.862C566.864 684.862 566.131 685.595 566.131 686.499C566.131 687.403 566.864 688.135 567.767 688.135Z" fill="#FBFBFD"/>
<path d="M567.767 696.161C568.671 696.161 569.404 695.428 569.404 694.525C569.404 693.621 568.671 692.888 567.767 692.888C566.864 692.888 566.131 693.621 566.131 694.525C566.131 695.428 566.864 696.161 567.767 696.161Z" fill="#FBFBFD"/>
<path d="M568.239 705.103C569.143 705.103 569.876 704.37 569.876 703.466C569.876 702.562 569.143 701.83 568.239 701.83C567.336 701.83 566.603 702.562 566.603 703.466C566.603 704.37 567.336 705.103 568.239 705.103Z" fill="#FBFBFD"/>
<path d="M568.239 713.99C569.143 713.99 569.876 713.258 569.876 712.354C569.876 711.45 569.143 710.717 568.239 710.717C567.336 710.717 566.603 711.45 566.603 712.354C566.603 713.258 567.336 713.99 568.239 713.99Z" fill="#FBFBFD"/>
<path d="M568.239 721.759C569.143 721.759 569.876 721.026 569.876 720.123C569.876 719.219 569.143 718.486 568.239 718.486C567.336 718.486 566.603 719.219 566.603 720.123C566.603 721.026 567.336 721.759 568.239 721.759Z" fill="#FBFBFD"/>
<path d="M568.697 729.308C569.601 729.308 570.333 728.575 570.333 727.671C570.333 726.768 569.601 726.035 568.697 726.035C567.793 726.035 567.06 726.768 567.06 727.671C567.06 728.575 567.793 729.308 568.697 729.308Z" fill="#FBFBFD"/>
<path d="M416.526 680.584L393.272 735.327L406.666 741.47L430.08 701.822L427.829 745.872L441.146 746.129L453.628 683.495L416.526 680.584Z" fill="#303E4E"/>
<path d="M435.03 629.46C435.03 629.46 429.82 631.155 427.673 629.481C425.527 627.807 426.224 625.308 426.224 625.308C426.224 625.308 422.26 625.459 421.493 622.427C420.725 619.395 423.439 618.421 423.439 618.421C423.439 618.421 420.435 617.176 420.45 615.061C420.465 612.947 422.081 612.347 422.081 612.347C422.081 612.347 419.892 609.362 420.85 606.385C421.807 603.408 425.542 604.129 425.542 604.129C425.542 604.129 424.752 600.808 426.549 599.482C428.345 598.157 430.596 598.874 430.596 598.874C430.596 598.874 429.815 595.67 432.347 594.645C434.879 593.619 436.34 596.414 436.34 596.414C436.34 596.414 437.306 593.548 438.942 593.987C440.578 594.426 440.417 596.574 440.417 596.574C440.417 596.574 441.926 594.203 444.676 594.466C447.426 594.729 447.042 598.022 447.042 598.022C447.042 598.022 449.854 596.203 451.537 598.032C453.221 599.86 452.714 601.749 452.714 601.749C452.714 601.749 455.08 601.285 455.757 602.555C456.434 603.826 455.672 604.715 455.672 604.715C455.672 604.715 458.193 604.105 459.474 606.974C460.755 609.842 458.3 611.099 458.3 611.099C458.3 611.099 460.233 612.876 460.063 614.626C459.894 616.376 458.193 617.405 458.193 617.405C458.193 617.405 459.567 619.843 458.349 621.747C457.131 623.651 453.043 622.957 453.043 622.957L435.03 629.46Z" fill="#303E4E"/>
<path d="M386.72 674.725C401.56 663.808 418.617 640.976 421.554 638.39C424.185 636.074 432.432 635.478 432.432 635.478L445.815 636.014C455.291 624.668 463.241 613.3 468.638 601.893L478.036 605.705C478.036 605.705 471.938 625.233 466.523 634.925C461.107 644.617 454.697 652.087 454.697 652.087C455.245 662.963 454.97 673.469 453.628 683.495C442.281 686.255 429.73 684.612 416.526 680.585C418.896 673.589 420.653 666.608 421.812 659.642C413.496 669.506 403.291 676.46 391.605 681.134L386.72 674.725Z" fill="#FE434C"/>
<path d="M453.74 613.81C453.141 612.655 452.587 611.733 452.065 610.984C450.194 611.304 449.079 609.496 449.079 609.496C449.079 609.496 448.6 611.792 446.335 611.665C444.07 611.539 443.939 609.597 443.939 609.597C443.939 609.597 443.652 611.215 442.528 611.48C441.404 611.744 440.68 611.152 440.68 611.152C440.68 611.152 441.361 612.276 440.566 613.511C439.771 614.746 437.613 614.473 437.613 614.473C437.613 614.473 438.831 615.412 438.425 617.078C438.126 618.307 436.628 618.343 435.863 618.277C436.229 618.399 436.711 618.751 436.893 619.753C437.047 620.6 436.532 621.012 435.978 621.212C434.906 620.049 433.156 619.682 431.673 620.429C429.88 621.333 429.158 623.519 430.062 625.312C430.965 627.105 433.151 627.827 434.944 626.923C435.597 626.595 436.105 626.095 436.447 625.507L432.82 635.623L445.815 636.014L446.251 631.949C447.896 632.255 449.789 632.139 451.86 631.195C459.651 627.647 455.764 617.708 453.74 613.81Z" fill="#C6725A"/>
<path d="M386.72 674.725C386.72 674.725 374.989 679.507 375.063 680.462C375.136 681.417 379.02 680.157 379.02 680.157C379.02 680.157 373.597 682.817 374.362 683.834C375.126 684.85 380.023 682.482 380.023 682.482C380.023 682.482 375.422 686.011 376.077 686.501C376.733 686.991 382.007 684.182 382.007 684.182C382.007 684.182 378.953 687.3 379.74 687.72C380.528 688.14 387.345 682.833 387.345 682.833C387.345 682.833 385.973 686.654 386.809 686.814C387.645 686.974 391.605 681.134 391.605 681.134L386.72 674.725Z" fill="#C6725A"/>
<path d="M469.9 602.405C469.9 602.405 472.87 592.067 473.436 592.023C474.003 591.98 474.12 595.862 474.12 595.862C474.12 595.862 476.33 591.286 477.354 591.519C478.085 591.686 477.942 592.71 477.942 592.71C477.942 592.71 479.13 592.182 479.723 592.754C480.316 593.326 480.029 594.203 480.029 594.203C480.029 594.203 480.998 593.654 481.445 594.297C481.892 594.94 481.908 595.904 481.908 595.904C481.908 595.904 482.771 595.593 483.185 596.08C483.99 597.028 478.036 605.705 478.036 605.705L469.9 602.405Z" fill="#C6725A"/>
<path d="M442.686 618.516C442.686 618.516 443.475 620.269 444.138 619.935C444.835 619.584 443.881 618.039 443.881 618.039C443.881 618.039 443.453 618.13 442.686 618.516Z" fill="#303E4E"/>
<path d="M450.303 614.79C450.303 614.79 451.092 616.543 451.756 616.209C452.452 615.858 451.498 614.313 451.498 614.313C451.498 614.313 451.07 614.404 450.303 614.79Z" fill="#303E4E"/>
<path d="M441.919 619.152C441.919 619.152 442.896 618.098 444.23 617.988" stroke="#303E4E" stroke-width="2" stroke-miterlimit="10" stroke-linecap="round" stroke-linejoin="round"/>
<path d="M449.536 615.427C449.536 615.427 450.513 614.372 451.848 614.262" stroke="#303E4E" stroke-width="2" stroke-miterlimit="10" stroke-linecap="round" stroke-linejoin="round"/>
<path d="M451.608 611.999C451.608 611.999 449.54 611.53 448.248 613.671" stroke="#303E4E" stroke-width="2" stroke-miterlimit="10" stroke-linecap="round" stroke-linejoin="round"/>
<path d="M444.068 615.153C444.068 615.153 441.468 615.135 440.579 617.4" stroke="#303E4E" stroke-width="2" stroke-miterlimit="10" stroke-linecap="round" stroke-linejoin="round"/>
<path d="M436.354 621.033C436.737 620.795 437.011 620.401 436.893 619.753C436.584 618.054 435.41 618.218 435.41 618.218C435.41 618.218 438.02 618.744 438.425 617.078C438.831 615.412 437.613 614.473 437.613 614.473C437.613 614.473 439.771 614.746 440.566 613.511C441.36 612.276 440.68 611.152 440.68 611.152C440.68 611.152 441.404 611.744 442.528 611.48C443.652 611.215 443.939 609.597 443.939 609.597C443.939 609.597 444.07 611.539 446.335 611.665C448.6 611.792 449.079 609.496 449.079 609.496C449.079 609.496 450.194 611.304 452.065 610.984C453.935 610.664 453.249 608.7 453.249 608.7C453.249 608.7 455.74 607.914 454.669 605.564C453.598 603.213 451.856 604.475 451.856 604.475C451.856 604.475 452.485 600.849 448.985 600.594C445.484 600.338 443.563 602.355 443.563 602.355C443.563 602.355 442.22 598.678 438.43 599.599C434.639 600.521 434.871 603.529 434.871 603.529" stroke="#636E77" stroke-width="1.5" stroke-miterlimit="10" stroke-linecap="round" stroke-linejoin="round"/>
<path d="M429.162 617.199C429.162 617.199 427.265 616.874 427.177 614.861C427.103 613.159 428.818 612.742 428.818 612.742C428.818 612.742 425.462 610.553 426.586 607.677C427.711 604.801 430.843 606.055 430.843 606.055" stroke="#636E77" stroke-width="1.5" stroke-miterlimit="10" stroke-linecap="round" stroke-linejoin="round"/>
<path d="M397.022 733.533L418.896 685.292" stroke="#636E77" stroke-width="1.5" stroke-miterlimit="10" stroke-linecap="round" stroke-linejoin="round"/>
<path d="M420.174 688.851C420.174 688.851 423.829 689.747 426.533 686.722" stroke="#636E77" stroke-width="1.5" stroke-miterlimit="10" stroke-linecap="round" stroke-linejoin="round"/>
<path d="M430.08 701.822L437.555 688.134L441.249 687.228" stroke="#636E77" stroke-width="1.5" stroke-miterlimit="10" stroke-linecap="round" stroke-linejoin="round"/>
<path d="M471.784 588.499C471.793 588.627 478.348 602.305 478.348 602.305L483.385 597.943L471.784 588.499Z" fill="#F1AF78"/>
<path d="M461.439 582.776L454.736 570.419L466.979 578.486L478.173 571.184L473.441 582.175L484.236 588.605L472.175 589.081L468.611 601.204L464.167 590.087L453.101 590.943L461.439 582.776Z" fill="#F1AF78"/>
<path d="M476.449 592.017C476.449 592.017 475.494 594.108 476.076 594.452C476.658 594.796 477.82 593.651 477.82 593.651C477.82 593.651 476.762 596.142 477.518 596.587C478.275 597.032 479.744 594.963 479.744 594.963C479.744 594.963 478.617 597.506 479.384 598.086C480.151 598.666 481.505 596.421 481.505 596.421C481.505 596.421 480.365 598.566 480.977 598.935C481.589 599.305 482.935 597.451 482.935 597.451" fill="#C6725A"/>
<path d="M456.828 572.635L467.503 584.152L468.654 597.84" stroke="#CC7940" stroke-width="2" stroke-miterlimit="10" stroke-linecap="round" stroke-linejoin="round"/>
<path d="M454.798 590.105L467.503 584.153L476.439 573.214" stroke="#CC7940" stroke-width="2" stroke-miterlimit="10" stroke-linecap="round" stroke-linejoin="round"/>
<path d="M462.237 583L467.503 584.152L481.478 587.954" stroke="#CC7940" stroke-width="2" stroke-miterlimit="10" stroke-linecap="round" stroke-linejoin="round"/>
<path d="M466.984 578.948L467.503 584.152L471.599 588.513" stroke="#CC7940" stroke-width="2" stroke-miterlimit="10" stroke-linecap="round" stroke-linejoin="round"/>
<path d="M464.477 589.494L467.503 584.153L472.784 582.363" stroke="#CC7940" stroke-width="2" stroke-miterlimit="10" stroke-linecap="round" stroke-linejoin="round"/>
<path d="M448.535 618.028C448.535 618.028 449.228 619.403 451.131 619.421C452.664 619.435 453.017 621.538 451.155 622.051" stroke="#AB4537" stroke-width="1.5" stroke-miterlimit="10" stroke-linecap="round" stroke-linejoin="round"/>
<path d="M447.35 624.835C447.556 625.408 448.81 626.356 450.009 625.551" stroke="#AB4537" stroke-width="1.5" stroke-miterlimit="10" stroke-linecap="round" stroke-linejoin="round"/>
<path d="M433.014 623.942C433.94 622.813 434.559 622.858 435.52 623.035C434.329 621.933 433.242 621.593 431.711 622.674" stroke="#AB4537" stroke-width="1.5" stroke-miterlimit="10" stroke-linecap="round" stroke-linejoin="round"/>
<path d="M473.502 597.467C473.502 597.467 475.241 599.644 475.269 602.375" stroke="#AB4537" stroke-width="1.5" stroke-miterlimit="10" stroke-linecap="round" stroke-linejoin="round"/>
<path d="M476.449 592.017C476.449 592.017 475.494 594.108 476.076 594.452C476.658 594.796 477.82 593.651 477.82 593.651C477.82 593.651 476.762 596.142 477.518 596.587C478.275 597.032 479.744 594.963 479.744 594.963C479.744 594.963 478.617 597.506 479.384 598.086C480.151 598.666 481.505 596.421 481.505 596.421C481.505 596.421 480.365 598.566 480.977 598.935C481.589 599.305 482.935 597.451 482.935 597.451" stroke="#AB4537" stroke-width="1.5" stroke-miterlimit="10" stroke-linecap="round" stroke-linejoin="round"/>
<path d="M381.616 677.594C381.616 677.594 381.585 680.36 385.193 682.106" stroke="#AB4537" stroke-width="1.5" stroke-miterlimit="10" stroke-linecap="round" stroke-linejoin="round"/>
<path d="M439.69 627.912C439.803 630.679 443.294 634.024 445.997 634.319L446.251 631.949C442.227 631.2 439.69 627.912 439.69 627.912Z" fill="#AB4537"/>
<path d="M396.166 736.638L390.887 746.553C390.887 746.553 402.384 757.333 404.501 755.791C406.617 754.249 400.331 744.24 400.331 744.24L402.772 739.684L396.166 736.638Z" fill="#E1283A"/>
<path d="M430.544 745.874L430.224 757.427C430.224 757.427 445.202 762.334 446.468 760.042C447.733 757.749 437.804 751.338 437.804 751.338L437.886 746.066L430.544 745.874Z" fill="#E1283A"/>
<path d="M435.03 629.46L432.432 635.478C436.679 638.077 441.589 639.283 446.879 637.403L446.192 632.442C441.77 633.137 438.278 631.639 435.03 629.46Z" fill="#E1283A"/>
<path d="M468.638 601.893L478.036 605.705C477.924 607.756 477.337 609.434 476.298 610.758L466.009 607.081C466.869 604.831 467.744 603.077 468.638 601.893Z" fill="#E1283A"/>
<path d="M386.72 674.725C388.038 673.409 389.545 672.15 391.378 670.991L396.786 678.863C395.354 680.107 393.634 680.874 391.605 681.134L386.72 674.725Z" fill="#E1283A"/>
<path d="M396.433 739.081L400.002 740.771" stroke="#FBFBFF" stroke-width="2" stroke-miterlimit="10" stroke-linecap="round" stroke-linejoin="round"/>
<path d="M397.869 738.166L398.142 741.718" stroke="#FBFBFF" stroke-width="2" stroke-miterlimit="10" stroke-linecap="round" stroke-linejoin="round"/>
<path d="M396.567 740.812L399.452 738.848" stroke="#FBFBFF" stroke-width="2" stroke-miterlimit="10" stroke-linecap="round" stroke-linejoin="round"/>
<path d="M432.091 748.31L436.04 748.332" stroke="#FBFBFF" stroke-width="2" stroke-miterlimit="10" stroke-linecap="round" stroke-linejoin="round"/>
<path d="M433.005 746.875L434.755 749.977" stroke="#FBFBFF" stroke-width="2" stroke-miterlimit="10" stroke-linecap="round" stroke-linejoin="round"/>
<path d="M432.944 749.823L434.728 746.823" stroke="#FBFBFF" stroke-width="2" stroke-miterlimit="10" stroke-linecap="round" stroke-linejoin="round"/>
<path d="M454.287 660.734C454.287 660.734 452.862 662.782 452.423 662.968C451.983 663.155 449.949 659.249 449.177 659.058C448.405 658.866 445.408 663.452 444.755 663.625C444.103 663.797 441.412 660.135 440.78 660.095C440.148 660.055 436.103 664.076 435.251 664.031C434.399 663.986 432.219 660.125 431.248 660.012C430.277 659.899 426.764 663.421 426.236 663.462C425.874 663.49 422.72 660.47 422.72 660.47" stroke="#FBFBFD" stroke-width="2" stroke-miterlimit="10" stroke-linecap="round" stroke-linejoin="round"/>
<path d="M454.445 664.807C454.445 664.807 453.214 667.366 452.469 667.277C451.725 667.189 449.507 663.996 448.802 663.88C448.096 663.764 446.062 667.77 445.131 667.829C444.201 667.889 441.432 664.341 440.756 664.379C440.08 664.416 435.44 667.812 434.784 668.035C434.129 668.259 431.684 664.082 430.982 664.224C430.28 664.366 427.037 667.301 426.158 667.171C424.633 666.945 422.126 663.726 422.126 663.726" stroke="#FBFBFD" stroke-width="2" stroke-miterlimit="10" stroke-linecap="round" stroke-linejoin="round"/>
<path d="M394.914 750.117C395.774 746.963 395.103 744.44 392.889 742.555L390.887 746.553C390.887 746.553 392.647 748.202 394.914 750.117Z" fill="#FBFBFF"/>
<path d="M404.094 751.417C401.787 750.859 400.177 751.66 399.042 753.384C401.459 755.138 403.682 756.387 404.501 755.791C405.3 755.209 404.9 753.419 404.094 751.417Z" fill="#FBFBFF"/>
<path d="M435.382 758.954C434.827 755.732 433.152 753.729 430.348 752.958L430.224 757.427C430.224 757.427 432.517 758.177 435.382 758.954Z" fill="#FBFBFF"/>
<path d="M444.25 756.25C441.923 756.721 440.803 758.127 440.503 760.169C443.435 760.736 445.978 760.929 446.468 760.042C446.946 759.176 445.827 757.723 444.25 756.25Z" fill="#FBFBFF"/>
<path d="M426.454 660.329C426.945 660.329 427.343 659.931 427.343 659.44C427.343 658.949 426.945 658.551 426.454 658.551C425.963 658.551 425.565 658.949 425.565 659.44C425.565 659.931 425.963 660.329 426.454 660.329Z" fill="#FDFDFF"/>
<path d="M435.624 660.484C436.115 660.484 436.513 660.086 436.513 659.595C436.513 659.104 436.115 658.706 435.624 658.706C435.133 658.706 434.735 659.104 434.735 659.595C434.735 660.086 435.133 660.484 435.624 660.484Z" fill="#FDFDFF"/>
<path d="M444.418 660.326C444.909 660.326 445.307 659.928 445.307 659.437C445.307 658.946 444.909 658.548 444.418 658.548C443.927 658.548 443.529 658.946 443.529 659.437C443.529 659.928 443.927 660.326 444.418 660.326Z" fill="#FDFDFF"/>
<path d="M452.576 659.95C453.067 659.95 453.465 659.552 453.465 659.061C453.465 658.57 453.067 658.172 452.576 658.172C452.085 658.172 451.687 658.57 451.687 659.061C451.687 659.552 452.085 659.95 452.576 659.95Z" fill="#FDFDFF"/>
<path d="M430.652 668.457C431.143 668.457 431.541 668.059 431.541 667.568C431.541 667.077 431.143 666.679 430.652 666.679C430.161 666.679 429.763 667.077 429.763 667.568C429.763 668.059 430.161 668.457 430.652 668.457Z" fill="#FDFDFF"/>
<path d="M440.56 668.663C441.051 668.663 441.449 668.265 441.449 667.774C441.449 667.283 441.051 666.885 440.56 666.885C440.069 666.885 439.671 667.283 439.671 667.774C439.671 668.265 440.069 668.663 440.56 668.663Z" fill="#FDFDFF"/>
<path d="M449.081 668.73C449.572 668.73 449.97 668.332 449.97 667.841C449.97 667.35 449.572 666.952 449.081 666.952C448.59 666.952 448.192 667.35 448.192 667.841C448.192 668.332 448.59 668.73 449.081 668.73Z" fill="#FDFDFF"/>
<path d="M421.779 668.249C422.27 668.249 422.668 667.851 422.668 667.36C422.668 666.869 422.27 666.471 421.779 666.471C421.288 666.471 420.89 666.869 420.89 667.36C420.89 667.851 421.288 668.249 421.779 668.249Z" fill="#FDFDFF"/>
<path d="M427.076 653.076C427.076 653.076 424.251 656.89 421.812 659.642" stroke="#E1283A" stroke-width="2" stroke-miterlimit="10" stroke-linecap="round" stroke-linejoin="round"/>
<path d="M454.697 652.087C454.697 652.087 453.588 644.247 452.06 640.509" stroke="#E1283A" stroke-width="2" stroke-miterlimit="10" stroke-linecap="round" stroke-linejoin="round"/>
<path d="M424.774 637.635C424.766 637.724 427.099 638.961 427.379 644.534" stroke="#E1283A" stroke-width="2" stroke-miterlimit="10" stroke-linecap="round" stroke-linejoin="round"/>
<path d="M447.51 635.883C447.51 635.883 449.095 636.337 450.996 638.557" stroke="#E1283A" stroke-width="2" stroke-miterlimit="10" stroke-linecap="round" stroke-linejoin="round"/>
<path d="M435.586 635.609L436.83 631.75" stroke="#FE434C" stroke-width="2" stroke-miterlimit="10" stroke-linecap="round" stroke-linejoin="round"/>
<path d="M439.627 636.998L440.397 633.24" stroke="#FE434C" stroke-width="2" stroke-miterlimit="10" stroke-linecap="round" stroke-linejoin="round"/>
<path d="M444.158 637.19L444.204 633.75" stroke="#FE434C" stroke-width="2" stroke-miterlimit="10" stroke-linecap="round" stroke-linejoin="round"/>
<path d="M388.622 674.984L391.601 672.845" stroke="#FE434C" stroke-width="2" stroke-miterlimit="10" stroke-linecap="round" stroke-linejoin="round"/>
<path d="M390.319 677.594L393.459 675.572" stroke="#FE434C" stroke-width="2" stroke-miterlimit="10" stroke-linecap="round" stroke-linejoin="round"/>
<path d="M392.006 680.085L395.458 678.16" stroke="#FE434C" stroke-width="2" stroke-miterlimit="10" stroke-linecap="round" stroke-linejoin="round"/>
<path d="M469.964 603.241L468.343 607.006" stroke="#FE434C" stroke-width="2" stroke-miterlimit="10" stroke-linecap="round" stroke-linejoin="round"/>
<path d="M473.718 604.772L472.16 608.178" stroke="#FE434C" stroke-width="2" stroke-miterlimit="10" stroke-linecap="round" stroke-linejoin="round"/>
<path d="M476.81 605.991L475.591 609.505" stroke="#FE434C" stroke-width="2" stroke-miterlimit="10" stroke-linecap="round" stroke-linejoin="round"/>
<path d="M162.299 28.5332C124.855 28.5332 94.5005 58.0675 94.5005 94.5C131.945 94.5 162.299 64.9657 162.299 28.5332Z" fill="#034F1B"/>
<path d="M26.7009 28.5332C26.7009 64.9657 57.0556 94.5 94.4997 94.5C57.0556 94.5 26.7009 124.034 26.7009 160.467C64.1454 160.467 94.4997 130.932 94.4997 94.5C94.4997 58.0675 64.1454 28.5332 26.7009 28.5332Z" fill="#034F1B"/>
<path d="M94.4999 94.5C94.4999 130.932 124.855 160.467 162.299 160.467C162.299 124.034 131.944 94.5 94.4999 94.5Z" fill="#034F1B"/>
<path d="M163.299 607.533C125.855 607.533 95.5005 637.067 95.5005 673.5C132.945 673.5 163.299 643.966 163.299 607.533Z" fill="#034F1B"/>
<path d="M27.7009 607.533C27.7009 643.966 58.0556 673.5 95.4997 673.5C58.0556 673.5 27.7009 703.034 27.7009 739.467C65.1454 739.467 95.4997 709.932 95.4997 673.5C95.4997 637.067 65.1454 607.533 27.7009 607.533Z" fill="#034F1B"/>
<path d="M95.4999 673.5C95.4999 709.932 125.855 739.467 163.299 739.467C163.299 703.034 132.944 673.5 95.4999 673.5Z" fill="#034F1B"/>
<path d="M997.299 607.533C959.855 607.533 929.5 637.067 929.5 673.5C966.945 673.5 997.299 643.966 997.299 607.533Z" fill="#034F1B"/>
<path d="M861.701 607.533C861.701 643.966 892.055 673.5 929.5 673.5C892.055 673.5 861.701 703.034 861.701 739.467C899.145 739.467 929.5 709.932 929.5 673.5C929.5 637.067 899.145 607.533 861.701 607.533Z" fill="#034F1B"/>
<path d="M929.5 673.5C929.5 709.932 959.855 739.467 997.299 739.467C997.299 703.034 966.945 673.5 929.5 673.5Z" fill="#034F1B"/>
<path d="M997.299 28.5332C959.855 28.5332 929.5 58.0675 929.5 94.5C966.945 94.5 997.299 64.9657 997.299 28.5332Z" fill="#034F1B"/>
<path d="M861.701 28.5332C861.701 64.9657 892.055 94.5 929.5 94.5C892.055 94.5 861.701 124.034 861.701 160.467C899.145 160.467 929.5 130.932 929.5 94.5C929.5 58.0675 899.145 28.5332 861.701 28.5332Z" fill="#034F1B"/>
<path d="M929.5 94.5C929.5 130.932 959.855 160.467 997.299 160.467C997.299 124.034 966.945 94.5 929.5 94.5Z" fill="#034F1B"/>
</g>
<defs>
<clipPath id="clip0_22_242">
<rect width="1024" height="768" fill="white"/>
</clipPath>
</defs>
</svg>
